<?xml version="1.0" standalone="no"?>
<!DOCTYPE svg PUBLIC "-//W3C//DTD SVG 1.1//EN" "http://www.w3.org/Graphics/SVG/1.1/DTD/svg11.dtd" >
<svg xmlns="http://www.w3.org/2000/svg">
<metadata>
This is a custom SVG webfont generated by Font Squirrel.
Copyright   : Copyright 2004 Monotype Imaging Inc All rights reserved
Foundry URL : httpwwwagfamonotypecom
</metadata>
<defs>
<font id="NeoSansProLight" horiz-adv-x="1187" >
<font-face units-per-em="2048" ascent="1567" descent="-481" />
<missing-glyph horiz-adv-x="440" />
<glyph unicode=" "  horiz-adv-x="440" />
<glyph unicode="&#x09;" horiz-adv-x="440" />
<glyph unicode="&#xa0;" horiz-adv-x="440" />
<glyph unicode="!" horiz-adv-x="417" d="M164 27v151q0 14 12 26.5t27 12.5h12q14 0 26.5 -12t12.5 -27v-151q0 -16 -11.5 -27.5t-27.5 -11.5h-12q-16 0 -27.5 11.5t-11.5 27.5zM164 393v1090q0 16 12 27.5t27 11.5h12q14 0 26.5 -11.5t12.5 -27.5v-1090q0 -16 -12.5 -27.5t-26.5 -11.5h-12q-14 0 -26.5 11.5 t-12.5 27.5z" />
<glyph unicode="&#x22;" horiz-adv-x="604" d="M80 1112q0 12 2 18l84 353q8 39 41 39h39q23 0 22 -23q0 -10 -2 -16l-98 -353q-10 -39 -39 -38h-31q-18 0 -18 20zM336 1112q0 12 2 18l84 353q8 39 41 39h39q23 0 22 -23q0 -10 -2 -16l-98 -353q-10 -39 -39 -38h-31q-18 0 -18 20z" />
<glyph unicode="#" horiz-adv-x="1302" d="M102 479v6q0 35 43 35h213l41 463h-213q-37 0 -36 35v8q0 14 13 24.5t30 10.5h213l36 422q2 16 13.5 27.5t25.5 11.5h21q31 0 30 -35v-4l-36 -422h368l37 422q4 39 39 39h18q31 0 31 -35v-4l-37 -422h213q35 0 35 -35v-8q0 -14 -12 -24.5t-29 -10.5h-213l-41 -463h213 q35 0 35 -35v-6q0 -35 -41 -35h-215l-35 -405q-4 -39 -37 -39h-18q-33 0 -33 35v4l35 405h-369l-34 -405q-4 -39 -37 -39h-21q-14 0 -23.5 10t-9.5 25v4l35 405h-211q-37 0 -37 35zM449 520h368l41 463h-369z" />
<glyph unicode="$" d="M164 1200q0 297 389 328v178q0 39 33 39h20q33 0 33 -39v-174h4q86 0 305 -21q35 -4 35 -30v-27q0 -29 -39 -29q-14 0 -129 10.5t-174 10.5q-201 0 -292 -58.5t-91 -187.5q0 -88 50 -147.5t198 -149.5l201 -123q190 -115 253.5 -200.5t63.5 -202.5q0 -350 -385 -385v-215 q0 -39 -33 -39h-20q-33 0 -33 39v211h-4q-92 0 -318 22q-37 4 -36 33v27q0 27 38 26h9q35 -2 96 -9t110.5 -10t100.5 -3q215 0 298 79.5t83 223.5q0 100 -52.5 159.5t-224.5 165.5l-204 127q-166 102 -225.5 182t-59.5 189z" />
<glyph unicode="%" horiz-adv-x="1550" d="M123 1001v213q0 158 68.5 238t191.5 80t190.5 -80t67.5 -238v-213q0 -158 -67.5 -238.5t-190.5 -80.5t-191.5 80.5t-68.5 238.5zM203 1001q0 -240 180 -239q178 0 178 239v213q0 240 -178 240q-180 0 -180 -240v-213zM279 -2q0 10 12 29l860 1456q23 39 43 39h53 q16 0 16.5 -10.5t-12.5 -28.5l-860 -1456q-23 -39 -43 -39h-55q-14 0 -14 10zM909 307v213q0 158 69 238t191.5 80t190 -80t67.5 -238v-213q0 -158 -67.5 -238.5t-190 -80.5t-191.5 80.5t-69 238.5zM989 307q0 -240 180 -239q178 0 179 239v213q0 240 -179 240 q-180 0 -180 -240v-213z" />
<glyph unicode="&#x26;" horiz-adv-x="1304" d="M102 342v12q0 125 68 216.5t244 203.5q-156 180 -201 267t-45 165v13q0 164 106.5 238.5t284.5 74.5q158 0 266.5 -76t108.5 -237v-13q0 -117 -73 -210t-249 -199l-67 -41l192 -207l244 -262q104 162 104 426v22q0 39 31 39h29q33 0 33 -39v-22q0 -299 -136 -492 l181 -194q4 -8 4 -13q0 -14 -17 -14h-65q-20 0 -33 14l-129 138q-158 -164 -418 -164q-84 0 -159.5 17.5t-147.5 55t-114 109.5t-42 172zM199 342q0 -139 106.5 -205.5t259.5 -66.5q225 0 361 145l-254 272q-164 176 -203 222q-160 -102 -215 -172t-55 -183v-12zM262 1206 q0 -70 40 -143.5t187 -241.5l76 45q162 96 218.5 169t56.5 171v13q0 231 -281 231q-143 0 -220 -50t-77 -181v-13z" />
<glyph unicode="'" horiz-adv-x="348" d="M80 1112q0 12 2 18l84 353q8 39 41 39h39q23 0 22 -23q0 -10 -2 -16l-98 -353q-10 -39 -39 -38h-31q-18 0 -18 20z" />
<glyph unicode="(" horiz-adv-x="542" d="M123 506v110q0 223 66.5 476.5t199.5 414.5q12 14 35 15h61q16 0 17 -11q0 -8 -10 -18q-131 -141 -204 -397t-73 -480v-110q0 -223 72.5 -479t204.5 -398q10 -10 10 -18q0 -10 -17 -10h-61q-23 0 -35 14q-133 162 -199.5 415t-66.5 476z" />
<glyph unicode=")" horiz-adv-x="542" d="M41 -389q0 8 10 18q131 141 204 397.5t73 479.5v110q0 223 -73 479.5t-204 397.5q-10 10 -10 18q0 10 16 11h62q23 0 35 -15q133 -162 199.5 -414.5t66.5 -476.5v-110q0 -223 -66.5 -476t-199.5 -415q-12 -14 -35 -14h-62q-16 0 -16 10z" />
<glyph unicode="*" horiz-adv-x="854" d="M70 1260q0 6 2 8l6 16q6 18 28 19q8 0 15 -3l268 -86v281q0 37 29 37h18q29 0 29 -37v-281l268 86q6 2 15 3q23 0 28 -19l6 -16q2 -2 2 -8q0 -27 -28 -33l-267 -86l164 -228q10 -14 11 -24q0 -12 -13 -23l-14 -10q-10 -6 -16 -6q-14 0 -29 18l-166 228l-164 -228 q-12 -16 -29 -16q-10 0 -16 4l-16 10q-12 6 -13 21q0 12 11 26l166 228l-267 86q-28 6 -28 33z" />
<glyph unicode="+" d="M139 791v20q0 33 41 33h371v373q0 41 33 40h20q33 0 33 -40v-373h373q41 0 41 -33v-20q0 -33 -41 -33h-373v-371q0 -41 -33 -41h-20q-33 0 -33 41v371h-371q-41 0 -41 33z" />
<glyph unicode="," horiz-adv-x="344" d="M49 -184q0 6 4 18l109 344q10 39 41 39h39q25 0 24 -22q0 -4 -4 -17l-129 -344q-14 -39 -39 -39h-24q-21 1 -21 21z" />
<glyph unicode="-" horiz-adv-x="704" d="M106 559v16q0 16 11.5 26.5t27.5 10.5h414q16 0 27.5 -10t11.5 -27v-16q0 -33 -39 -33h-414q-39 0 -39 33z" />
<glyph unicode="." horiz-adv-x="344" d="M127 27v151q0 14 12.5 26.5t26.5 12.5h12q14 0 26.5 -12t12.5 -27v-151q0 -16 -11 -27.5t-28 -11.5h-12q-16 0 -27.5 11.5t-11.5 27.5z" />
<glyph unicode="/" horiz-adv-x="638" d="M29 12q0 10 2 15l481 1466q12 39 33 39h43q23 0 22 -25q0 -10 -2 -14l-481 -1466q-12 -39 -33 -39h-45q-20 -1 -20 24z" />
<glyph unicode="0" d="M123 559v404q0 287 124 428t347 141t347 -141.5t124 -427.5v-404q0 -289 -124 -430t-347 -141t-347 141t-124 430zM213 559q0 -242 97.5 -365.5t283.5 -123.5t283.5 123.5t97.5 365.5v404q0 242 -97.5 364.5t-283.5 122.5t-283.5 -123t-97.5 -364v-404z" />
<glyph unicode="1" d="M131 1415v10q0 33 41 41l395 56h11q37 0 36 -41v-1397h351q41 0 41 -31v-22q0 -31 -41 -31h-791q-41 0 -41 31v22q0 31 41 31h350v1350l-352 -45h-10q-31 -1 -31 26z" />
<glyph unicode="2" d="M164 41v125q0 170 62.5 292t254.5 251l209 141q139 94 187.5 159.5t48.5 164.5q0 141 -88 206.5t-289 65.5q-156 0 -313 -31q-2 0 -7 -2h-4q-33 0 -32 33v22q0 25 38 33q143 31 318 31q475 0 475 -358q0 -117 -59.5 -202t-216.5 -192l-209 -141q-96 -66 -154.5 -121 t-86.5 -114.5t-35 -108.5t-7 -129v-82h709q41 0 41 -31v-22q0 -31 -41 -31h-760q-18 0 -29.5 12.5t-11.5 28.5z" />
<glyph unicode="3" d="M172 1448v16q0 29 37 37q172 31 299 31q254 0 381 -82t127 -293v-24q0 -246 -213 -338q109 -49 161 -144.5t52 -187.5v-41q0 -434 -508 -434q-154 0 -299 30q-37 8 -37 37v13q0 33 33 32h8q160 -27 295 -26q213 0 312.5 82t99.5 266v41q0 102 -73 197.5t-218 95.5h-383 q-16 0 -27.5 10t-11.5 27v14q0 37 39 37h383q84 0 144.5 28.5t90 75.5t43 92t13.5 93v24q0 166 -97.5 227.5t-314.5 61.5q-111 0 -295 -31h-8q-33 0 -33 33z" />
<glyph unicode="4" d="M78 553q0 43 28 86l574 842q33 51 104 51q82 0 82 -98v-906h205q39 0 39 -32v-19q0 -35 -39 -35h-205v-403q0 -39 -32 -39h-25q-33 0 -33 39v403h-567q-61 0 -96 32t-35 79zM164 553q0 -25 45 -25h567v893q0 16 -12 17q-8 0 -21 -17l-559 -821q-20 -33 -20 -47z" />
<glyph unicode="5" d="M158 63v23q0 27 26 27q10 0 17 -2q158 -37 311 -37q207 0 317.5 92t110.5 274v52q0 176 -114.5 246.5t-379.5 70.5h-217q-41 0 -41 41v4l48 633q4 35 40 35h668q41 0 41 -33v-23q0 -29 -41 -28h-620l-37 -545h159q324 0 454 -98.5t130 -302.5v-52q0 -217 -141 -334.5 t-377 -117.5q-158 0 -315 37q-39 5 -39 38z" />
<glyph unicode="6" d="M131 518v481q0 281 125 407t377 126q152 0 325 -39q45 -8 46 -37v-20q0 -29 -33 -29q-10 0 -17 2q-178 37 -321 37q-215 0 -313.5 -101.5t-98.5 -345.5v-127q209 53 379 54q90 0 167 -20.5t144.5 -63.5t106.5 -125t39 -193v-10q0 -264 -114 -395t-359 -131 q-229 0 -341 131t-112 399zM221 518q0 -242 87 -345t276 -103q190 0 286.5 104.5t96.5 339.5v10q0 90 -32 154.5t-86 98.5t-115.5 49.5t-133.5 15.5q-190 0 -379 -49v-275z" />
<glyph unicode="7" d="M127 1466v17q0 16 12.5 27.5t28.5 11.5h811q35 0 57.5 -19.5t22.5 -52.5q0 -25 -10 -45l-656 -1385q-8 -20 -37 -20h-30q-31 0 -31 31q0 12 6 24l647 1350q2 4 2 12q0 16 -16 17h-766q-41 -1 -41 32z" />
<glyph unicode="8" d="M115 403v62q0 94 55 190.5t158 141.5q-98 35 -155.5 122t-57.5 195v45q0 186 129 279.5t350 93.5t350 -93t129 -280v-45q0 -109 -57.5 -196t-155.5 -121q102 -45 157.5 -141.5t55.5 -190.5v-62q0 -205 -131 -310t-348 -105t-348 105t-131 310zM211 403 q0 -162 99.5 -245.5t283.5 -83.5t283.5 84t99.5 245v62q0 41 -14.5 86t-46 93t-94 80t-144.5 32h-168q-82 0 -144.5 -32t-94 -80t-46 -93t-14.5 -86v-62zM211 1114q0 -106 70.5 -188t228.5 -82h168q158 0 228.5 82t70.5 188v45q0 287 -383 287t-383 -287v-45z" />
<glyph unicode="9" d="M131 995v11q0 264 113.5 395t359.5 131q229 0 341 -131t112 -400v-481q0 -281 -125 -406.5t-377 -125.5q-152 0 -326 39q-45 8 -45 36v21q0 29 33 29q10 0 16 -2q178 -37 322 -37q215 0 313.5 101t98.5 345v127q-209 -53 -379 -53q-90 0 -167 20.5t-144.5 63.5 t-106.5 124.5t-39 192.5zM221 995q0 -90 32 -154.5t86 -98t115.5 -49t133.5 -15.5q190 0 379 49v274q0 242 -87 345.5t-276 103.5q-190 0 -286.5 -104.5t-96.5 -339.5v-11z" />
<glyph unicode=":" horiz-adv-x="364" d="M137 27v151q0 14 11.5 26.5t27.5 12.5h12q16 0 27.5 -12t11.5 -27v-151q0 -16 -11 -27.5t-28 -11.5h-12q-16 0 -27.5 11.5t-11.5 27.5zM137 920v151q0 14 11.5 26.5t27.5 12.5h12q16 0 27.5 -12.5t11.5 -26.5v-151q0 -16 -11 -27.5t-28 -11.5h-12q-16 0 -27.5 11.5 t-11.5 27.5z" />
<glyph unicode=";" horiz-adv-x="364" d="M25 -184q0 6 4 18l108 344q10 39 41 39h39q25 0 25 -22q0 -4 -4 -17l-129 -344q-14 -39 -39 -39h-25q-20 1 -20 21zM137 920v151q0 14 11.5 26.5t27.5 12.5h12q16 0 27.5 -12.5t11.5 -26.5v-151q0 -16 -11 -27.5t-28 -11.5h-12q-16 0 -27.5 11.5t-11.5 27.5z" />
<glyph unicode="&#x3c;" d="M229 801q0 35 31 59l545 447q18 14 33 14q12 0 20 -8l14 -15q10 -10 11 -22q0 -18 -17 -31l-542 -444l542 -445q16 -12 17 -30q0 -12 -11 -23l-14 -14q-8 -8 -20 -8q-14 0 -33 14l-545 446q-31 25 -31 60z" />
<glyph unicode="=" d="M180 586v20q0 33 41 33h748q41 0 41 -33v-20q0 -33 -41 -33h-748q-41 0 -41 33zM180 995v21q0 33 41 33h748q41 0 41 -33v-21q0 -33 -41 -32h-748q-41 -1 -41 32z" />
<glyph unicode="&#x3e;" d="M334 326q0 18 16 30l543 445l-543 444q-16 12 -16 31q0 12 10 22l14 15q8 8 21 8q14 0 33 -14l544 -447q31 -25 31 -59.5t-31 -59.5l-544 -446q-18 -14 -33 -14q-12 0 -21 8l-14 14q-10 11 -10 23z" />
<glyph unicode="?" horiz-adv-x="868" d="M72 1462v17q0 35 34 39q117 14 244 14q170 0 282.5 -70.5t112.5 -226.5v-16q0 -94 -46 -174t-179 -214l-61 -61q-78 -78 -100.5 -124t-22.5 -130v-123q0 -16 -11.5 -27.5t-27.5 -11.5h-12q-16 0 -27.5 11.5t-11.5 27.5v123q0 100 30.5 164.5t120.5 155.5l58 57 q119 119 155.5 183.5t36.5 142.5v16q0 115 -72.5 166t-224.5 51q-80 0 -248 -14h-4q-26 -1 -26 24zM244 27v151q0 14 11 26.5t28 12.5h12q16 0 27.5 -12t11.5 -27v-151q0 -16 -11.5 -27.5t-27.5 -11.5h-12q-16 0 -27.5 11.5t-11.5 27.5z" />
<glyph unicode="@" horiz-adv-x="1552" d="M102 356q0 39 2 60l29 293q25 268 216.5 443t496.5 175q283 0 443.5 -166t160.5 -397q0 -211 -38 -330t-128 -184q-160 -117 -557 -117q-143 0 -216 74t-73 194q0 25 2 37l23 242q12 135 95 218t235 83q121 0 251 -29q29 -6 29 -26v-4l-63 -695q72 8 127 28.5t92 45.5 t62.5 67t40 77.5t21.5 96t8 104.5t1 118q0 211 -139.5 347t-382.5 136q-260 0 -428 -154.5t-191 -385.5l-28 -291q-2 -20 -3 -60q0 -207 133.5 -344t389.5 -137q115 0 258 10h2h6q31 0 31 -24q0 -8 -2 -15q-6 -27 -41 -32q-127 -16 -262 -17q-283 0 -443 161.5t-160 397.5z M524 403q0 -188 203 -188h70q86 0 125 6l59 662q-125 18 -193 18q-219 0 -239 -223l-23 -240q-2 -12 -2 -35z" />
<glyph unicode="A" horiz-adv-x="1267" d="M82 45l420 1387q31 100 133 100t131 -98l420 -1389q4 -13 3 -22q0 -29 -32 -29h-24q-25 0 -33 26l-172 555h-590l-168 -555q-8 -27 -33 -26h-26q-32 0 -33 29q0 9 4 22zM362 666h543l-223 743q-12 41 -47 41q-37 0 -47 -39z" />
<glyph unicode="B" d="M164 41v1440q0 35 39 39q168 12 307 12q563 0 563 -371v-22q0 -254 -244 -340q252 -76 252 -348v-35q0 -430 -571 -430q-160 0 -307 16q-39 2 -39 39zM254 844h371q358 0 358 295v22q0 72 -26.5 126t-69.5 85t-107.5 49.5t-127 24.5t-142.5 6q-53 0 -153.5 -4t-102.5 -4 v-600zM254 80q176 -12 256 -12q102 0 180 13t150.5 48t111.5 107.5t39 179.5v35q0 305 -366 305h-371v-676z" />
<glyph unicode="C" horiz-adv-x="1099" d="M123 625v270q0 176 41 305t114.5 198.5t158.5 101.5t188 32q176 0 354 -21q39 -4 39 -34v-25q0 -29 -39 -25q-166 18 -354 19q-186 0 -299 -132t-113 -419v-270q0 -287 112.5 -419t299.5 -132q188 0 354 18q39 4 39 -24v-25q0 -31 -39 -35q-178 -20 -354 -20 q-102 0 -187.5 31.5t-159 101t-114.5 199t-41 305.5z" />
<glyph unicode="D" horiz-adv-x="1255" d="M164 43v1434q0 31 35 39q94 16 336 16q598 0 598 -645v-254q0 -336 -160 -490.5t-438 -154.5q-242 0 -336 16q-35 8 -35 39zM254 76q121 -8 281 -8q508 0 507 565v254q0 565 -507 565q-100 0 -281 -12v-1364z" />
<glyph unicode="E" horiz-adv-x="1091" d="M164 229v1063q0 125 62.5 177.5t185.5 52.5h528q39 0 39 -35v-17q0 -33 -39 -32h-528q-82 0 -120 -29t-38 -117v-450h686q39 0 39 -33v-21q0 -35 -39 -34h-686v-525q0 -88 38 -116.5t120 -28.5h528q39 0 39 -33v-16q0 -35 -39 -35h-528q-123 0 -185.5 52t-62.5 177z" />
<glyph unicode="F" horiz-adv-x="1060" d="M164 39v1253q0 125 62.5 177.5t185.5 52.5h528q39 0 39 -35v-17q0 -33 -39 -32h-528q-82 0 -120 -29t-38 -117v-450h686q39 0 39 -33v-21q0 -35 -39 -34h-686v-715q0 -16 -10.5 -27.5t-24.5 -11.5h-20q-14 0 -24.5 11.5t-10.5 27.5z" />
<glyph unicode="G" horiz-adv-x="1204" d="M123 633v254q0 147 30.5 263t81 186.5t119 115.5t137 62.5t146.5 17.5q193 0 369 -21q35 -4 34 -32v-21q0 -37 -43 -31q-207 20 -360 21q-66 0 -123 -15.5t-114.5 -54.5t-97.5 -100t-64.5 -161.5t-24.5 -229.5v-254q0 -283 111.5 -421t312.5 -138q164 0 311 18v651 q0 39 35 39h21q35 0 34 -39v-690q0 -35 -34 -39q-213 -27 -367 -26q-231 0 -372.5 160.5t-141.5 484.5z" />
<glyph unicode="H" horiz-adv-x="1325" d="M164 39v1444q0 16 10 27.5t25 11.5h20q14 0 24.5 -11.5t10.5 -27.5v-627h819v627q0 39 35 39h18q35 0 35 -39v-1444q0 -39 -35 -39h-18q-35 0 -35 39v733h-819v-733q0 -16 -10.5 -27.5t-24.5 -11.5h-20q-14 0 -24.5 11.5t-10.5 27.5z" />
<glyph unicode="I" horiz-adv-x="458" d="M184 39v1444q0 16 10.5 27.5t24.5 11.5h21q14 0 24 -11.5t10 -27.5v-1444q0 -16 -10 -27.5t-24 -11.5h-21q-14 0 -24.5 11.5t-10.5 27.5z" />
<glyph unicode="J" horiz-adv-x="458" d="M-90 -350q0 31 41 31h29q127 0 165.5 37.5t38.5 158.5v1606q0 16 10.5 27.5t24.5 11.5h21q14 0 24 -11.5t10 -27.5v-1606q0 -147 -65.5 -211.5t-228.5 -64.5h-29q-41 0 -41 28v21z" />
<glyph unicode="K" horiz-adv-x="1110" d="M164 39v1444q0 16 12 27.5t27 11.5h12q14 0 26.5 -11.5t12.5 -27.5v-656l696 680q25 23 47 23q16 0 27.5 -11.5t11.5 -23.5q0 -20 -16 -37l-688 -667l702 -730q15 -16 15 -31q0 -6 -2 -13q-8 -22 -37 -21q-31 0 -47 16l-709 738v-711q0 -16 -10.5 -27.5t-24.5 -11.5h-20 q-14 0 -24.5 11.5t-10.5 27.5z" />
<glyph unicode="L" horiz-adv-x="989" d="M164 229v1254q0 16 10 27.5t25 11.5h20q14 0 24.5 -11.5t10.5 -27.5v-1254q0 -88 38 -116.5t120 -28.5h467q39 0 39 -33v-16q0 -35 -39 -35h-467q-123 0 -185.5 52t-62.5 177z" />
<glyph unicode="M" horiz-adv-x="1495" d="M164 39v1393q0 100 104 100q63 0 94 -64l359 -751q12 -27 26.5 -27t26.5 27l359 751q31 63 94 64q104 0 104 -100v-1393q0 -16 -10 -27.5t-25 -11.5h-20q-14 0 -24.5 11.5t-10.5 27.5v1393q0 14 -14 14q-10 0 -21 -19l-354 -747q-35 -74 -104.5 -74t-104.5 74l-354 747 q-10 18 -21 19q-14 0 -14 -14v-1393q0 -16 -10.5 -27.5t-24.5 -11.5h-20q-14 0 -24.5 11.5t-10.5 27.5z" />
<glyph unicode="N" horiz-adv-x="1333" d="M164 39v1393q0 45 27.5 72.5t72.5 27.5q68 0 98 -64l689 -1380q6 -14 16 -14t10 18v1391q0 39 33 39h25q35 0 34 -39v-1391q0 -47 -26.5 -75.5t-65.5 -28.5q-51 0 -69 14q-23 18 -37 47l-690 1383q-6 14 -16.5 14t-10.5 -14v-1393q0 -16 -10.5 -27.5t-24.5 -11.5h-20 q-14 0 -24.5 11.5t-10.5 27.5z" />
<glyph unicode="O" horiz-adv-x="1294" d="M123 633v254q0 328 141.5 486.5t383 158.5t382.5 -159t141 -486v-254q0 -328 -141 -486.5t-382.5 -158.5t-383 158.5t-141.5 486.5zM213 633q0 -559 434 -559t434 559v254q0 559 -434 559t-434 -559v-254z" />
<glyph unicode="P" horiz-adv-x="1105" d="M164 39v1444q0 14 10 25.5t25 13.5q178 10 278 10q557 0 557 -416v-35q0 -233 -142 -335.5t-415 -102.5q-109 0 -223 8v-612q0 -16 -10.5 -27.5t-24.5 -11.5h-20q-14 0 -24.5 11.5t-10.5 27.5zM254 731q127 -8 223 -8q242 0 354.5 83t112.5 275v35q0 184 -114.5 260 t-352.5 76q-133 0 -223 -6v-715z" />
<glyph unicode="Q" horiz-adv-x="1294" d="M123 633v254q0 328 141.5 486.5t383 158.5t382.5 -159t141 -486v-254q0 -313 -129 -472t-352 -171v-137q0 -115 31 -143.5t160 -28.5h43q41 0 41 -33v-15q0 -33 -41 -32h-43q-154 0 -217.5 47t-63.5 205v137q-221 14 -349 173t-128 470zM213 633q0 -559 434 -559t434 559 v254q0 559 -434 559t-434 -559v-254z" />
<glyph unicode="R" horiz-adv-x="1224" d="M164 39v1446q0 14 10 25.5t25 13.5q143 8 319 8q287 0 422 -95.5t135 -322.5v-10q0 -182 -90 -279.5t-276 -128.5l413 -637q10 -14 10 -28q0 -6 -2 -12q-6 -19 -30 -19h-27q-16 0 -31 18l-436 668h-88l-264 2v-649q0 -16 -10.5 -27.5t-24.5 -11.5h-20q-14 0 -24.5 11.5 t-10.5 27.5zM254 774q27 0 130 -1t134 -1q248 0 357.5 70.5t109.5 261.5v10q0 184 -113.5 258t-353.5 74q-182 0 -264 -8v-664z" />
<glyph unicode="S" horiz-adv-x="1085" d="M113 1214q0 90 40 155t110.5 99.5t151.5 49t177 14.5q152 0 285 -19q55 -6 55 -40v-11q0 -34 -48 -33q-7 0 -16 1q-147 16 -278 16q-385 0 -385 -232q0 -102 62.5 -169.5t213.5 -159.5l131 -80q201 -121 281 -207t80 -219q0 -391 -475 -391q-172 0 -299 20q-55 8 -56 43 v8q0 35 39 36q4 0 8 -1q164 -20 308 -20q215 0 298 81t83 224q0 39 -6.5 67.5t-27 58.5t-37.5 49t-64.5 53l-77 53.5t-103.5 64.5l-129 80q-168 102 -244.5 188t-76.5 221z" />
<glyph unicode="T" horiz-adv-x="1169" d="M61 1468v19q0 35 39 35h969q39 0 39 -35v-19q0 -31 -39 -30h-438v-1399q0 -16 -10.5 -27.5t-24.5 -11.5h-21q-14 0 -24 11.5t-10 27.5v1399h-441q-39 -1 -39 30z" />
<glyph unicode="U" horiz-adv-x="1296" d="M164 541v942q0 16 10 27.5t25 11.5h20q14 0 24.5 -11.5t10.5 -27.5v-942q0 -231 93 -350t302 -119t301 118.5t92 350.5v942q0 16 10.5 27.5t24.5 11.5h21q14 0 24.5 -11.5t10.5 -27.5v-942q0 -266 -120 -409.5t-364 -143.5q-246 0 -365.5 143.5t-119.5 409.5z" />
<glyph unicode="V" horiz-adv-x="1290" d="M92 1470q-2 8 -2 16q0 11 5 20q9 15 30 16h22q25 0 33 -29l418 -1378q12 -41 47 -41t47 41l418 1378q8 29 33 29h22q20 0 30 -16q6 -9 6 -20q0 -7 -3 -16l-420 -1382q-29 -100 -133 -100t-133 100z" />
<glyph unicode="W" horiz-adv-x="1613" d="M92 1475q-1 6 -1 11q0 12 6 21q9 14 28 15h20q31 0 37 -33l248 -1387q6 -31 12 -30q8 0 17 30l256 797q25 80 92 80t92 -80l256 -797q8 -31 16 -30q6 0 13 30l248 1387q6 33 36 33h21q18 0 28 -15q6 -10 6 -21q0 -5 -1 -11l-252 -1391q-18 -96 -99 -96q-72 0 -98 92 l-250 792q-8 25 -16 25t-16 -25l-250 -792q-27 -92 -99 -92q-80 0 -98 96z" />
<glyph unicode="X" horiz-adv-x="1232" d="M83 19q-2 6 -2 14q0 13 9 26l473 719l-450 682q-14 20 -8 41t28 21h23q18 0 32 -19l426 -647l428 647q14 18 33 19h19q25 0 32 -20.5t-8 -41.5l-450 -684l473 -717q10 -14 9 -26q0 -7 -2 -14q-7 -19 -32 -19h-16q-18 0 -33 18l-451 682l-450 -682q-14 -18 -33 -18h-18 q-25 0 -32 19z" />
<glyph unicode="Y" horiz-adv-x="1128" d="M98 1466q-8 17 -7 30q0 26 36 26h20q20 0 33 -25l322 -717q20 -45 31.5 -58t30 -13t29.5 13t32 58l321 717q12 25 33 25h20q36 0 37 -26q0 -12 -8 -30l-323 -714q-45 -98 -97 -119v-594q0 -16 -10 -27.5t-25 -11.5h-20q-14 0 -24.5 11.5t-10.5 27.5v594q-51 20 -96 119z " />
<glyph unicode="Z" horiz-adv-x="1218" d="M139 88q0 39 23 74l776 1249q4 6 4 14q0 12 -16 13h-742q-43 0 -43 30v21q0 33 43 33h742q59 0 84 -17q35 -20 34 -65q0 -31 -22 -70l-782 -1264q-4 -8 -4 -14q0 -8 14 -8h803q43 0 43 -31v-20q0 -33 -43 -33h-803q-111 0 -111 88z" />
<glyph unicode="[" horiz-adv-x="610" d="M184 -360v1843q0 16 10.5 27.5t24.5 11.5h311q39 0 39 -35v-17q0 -33 -39 -32h-256v-1753h256q39 0 39 -35v-17q0 -33 -39 -32h-311q-14 0 -24.5 11.5t-10.5 27.5z" />
<glyph unicode="\" horiz-adv-x="665" d="M43 1507q0 25 23 25h43q20 0 32 -39l482 -1466q2 -4 2 -15q0 -25 -21 -24h-45q-20 0 -33 39l-481 1466q-2 4 -2 14z" />
<glyph unicode="]" horiz-adv-x="610" d="M41 -350q0 35 39 35h256v1753h-256q-39 0 -39 32v17q0 35 39 35h311q14 0 24.5 -11.5t10.5 -27.5v-1843q0 -16 -10 -27.5t-25 -11.5h-311q-39 0 -39 32v17z" />
<glyph unicode="^" d="M242 1165q0 8 10 23l240 307q29 37 55 37h94q27 0 55 -37l240 -307q10 -14 10 -23q0 -18 -22 -18h-37q-8 0 -13.5 1t-10.5 6l-8 8q-3 3 -10 12.5t-11 13.5l-240 285l-240 -285q-4 -4 -11 -13.5t-10 -12.5l-8 -8q-5 -5 -10.5 -6t-13.5 -1h-37q-22 0 -22 18z" />
<glyph unicode="_" horiz-adv-x="952" d="M-61 -147q0 33 41 32h993q41 0 41 -32v-21q0 -33 -41 -33h-993q-41 0 -41 33v21z" />
<glyph unicode="`" horiz-adv-x="675" d="M98 1579q0 14 23 14h53q23 0 47 -30l205 -263q8 -8 8 -20q0 -14 -18 -14h-45q-16 0 -45 34l-220 263q-8 8 -8 16z" />
<glyph unicode="a" horiz-adv-x="999" d="M102 317v27q0 162 117 238.5t389 76.5h158v74q0 164 -56.5 230.5t-201.5 66.5q-117 0 -291 -18q-5 0 -9 -1q-38 0 -38 31v13q0 31 47 37q156 18 291 18q195 0 271.5 -97.5t76.5 -279.5v-692q0 -16 -12.5 -28.5t-28.5 -12.5h-10q-16 0 -28.5 12.5t-12.5 28.5v51 q-190 -104 -348 -104q-133 0 -223.5 76.5t-90.5 252.5zM193 317q0 -250 223 -249q156 0 350 104v408h-158q-231 0 -323 -52.5t-92 -183.5v-27z" />
<glyph unicode="b" horiz-adv-x="1032" d="M143 66v1417q0 16 10.5 27.5t24.5 11.5h21q14 0 24 -11.5t10 -27.5v-404q137 31 285 31q401 0 402 -489v-136q0 -231 -98.5 -364t-303.5 -133q-154 0 -344 39q-31 8 -31 39zM233 94q160 -27 285 -26q166 0 238.5 105.5t72.5 311.5v136q0 207 -72.5 308t-238.5 101 q-158 0 -285 -26v-910z" />
<glyph unicode="c" horiz-adv-x="894" d="M113 483v138q0 219 98 354t307 135q92 0 248 -18q39 -6 39 -37v-15q0 -37 -43 -28q-143 18 -244 18q-315 0 -315 -409v-138q0 -416 315 -415q100 0 244 18q43 8 43 -29v-14q0 -31 -39 -37q-156 -18 -248 -18q-207 0 -306 138t-99 357z" />
<glyph unicode="d" horiz-adv-x="1032" d="M113 485v136q0 489 401 489q147 0 285 -31v404q0 16 10 27.5t25 11.5h20q14 0 24.5 -11.5t10.5 -27.5v-1417q0 -31 -31 -39q-190 -39 -344 -39q-205 0 -303 133t-98 364zM203 485q0 -207 72.5 -312t238.5 -105q125 0 285 26v910q-127 27 -285 26q-166 0 -238.5 -101.5 t-72.5 -307.5v-136z" />
<glyph unicode="e" horiz-adv-x="1046" d="M113 485v136q0 219 108.5 354t304.5 135q205 0 306.5 -130t101.5 -357v-56q0 -16 -11.5 -27.5t-27.5 -11.5h-692v-43q0 -238 98 -327.5t272 -89.5q133 0 304 34q43 8 43 -26v-15q0 -31 -39 -38q-168 -35 -308 -35q-460 -1 -460 497zM203 610h641v13q0 201 -75 304 t-243 103q-164 0 -243.5 -109.5t-79.5 -299.5v-11z" />
<glyph unicode="f" horiz-adv-x="772" d="M82 1049v18q0 33 39 33h203v190q0 242 231 242q68 0 106.5 -6t38.5 -33v-14q0 -27 -43 -27h-102q-74 0 -107.5 -36t-33.5 -126v-190h243q39 0 39 -33v-18q0 -33 -39 -33h-243v-977q0 -16 -11.5 -27.5t-25.5 -11.5h-15q-16 0 -27 11.5t-11 27.5v977h-203q-39 0 -39 33z " />
<glyph unicode="g" horiz-adv-x="1093" d="M113 -70q0 98 47 179t106 116l-14 4q-109 33 -109 138q0 92 86 131q-106 88 -106 243v17q0 342 422 342h418q39 0 38 -33v-23q0 -33 -38 -32h-107q113 -90 113 -254v-17q0 -334 -424 -333q-133 0 -250 47q-70 -31 -70 -88q0 -47 60 -64l368 -96q178 -47 253 -102.5 t75 -178.5v-14q0 -317 -434 -317.5t-434 317.5v18zM201 -70v-18q0 -117 78.5 -179.5t267.5 -62.5q195 0 269.5 59.5t74.5 182.5v14q0 84 -51.5 123t-206.5 80l-283 74q-149 -99 -149 -273zM213 741q0 -45 13.5 -85t46 -80.5t102 -65.5t170.5 -25q188 0 262 69t74 187v17 q0 123 -75 193.5t-261 70.5q-193 0 -262.5 -72.5t-69.5 -191.5v-17z" />
<glyph unicode="h" horiz-adv-x="1034" d="M143 27v1456q0 16 10.5 27.5t24.5 11.5h21q14 0 24 -11.5t10 -27.5v-410q143 37 277 37q391 0 391 -393v-690q0 -39 -35 -39h-20q-33 0 -33 39v690q0 156 -71.5 234.5t-231.5 78.5q-150 0 -277 -37v-966q0 -16 -10 -27.5t-24 -11.5h-21q-14 0 -24.5 11.5t-10.5 27.5z" />
<glyph unicode="i" horiz-adv-x="417" d="M164 27v1034q0 16 12 27.5t27 11.5h12q14 0 26.5 -11.5t12.5 -27.5v-1034q0 -14 -12.5 -26.5t-26.5 -12.5h-12q-14 0 -26.5 12.5t-12.5 26.5zM164 1341v152q0 14 12 26.5t27 12.5h12q14 0 26.5 -12.5t12.5 -26.5v-152q0 -16 -11.5 -27t-27.5 -11h-12q-16 0 -27.5 11 t-11.5 27z" />
<glyph unicode="j" horiz-adv-x="417" d="M-78 -346q0 25 43 24h78q70 0 95.5 28t25.5 118v1237q0 39 33 39h22q35 0 35 -39v-1237q0 -127 -51 -175t-160 -48q-39 0 -86 6q-35 4 -35 28v19zM164 1341v152q0 14 12 26.5t27 12.5h12q14 0 26.5 -12.5t12.5 -26.5v-152q0 -16 -11.5 -27t-27.5 -11h-12q-16 0 -27.5 11 t-11.5 27z" />
<glyph unicode="k" horiz-adv-x="909" d="M143 27v1456q0 16 12.5 27.5t26.5 11.5h13q14 0 26 -11.5t12 -27.5v-862l504 471q20 18 49 18t39 -25q3 -8 4 -14q0 -16 -16 -29l-502 -458l504 -533q13 -15 13 -30q0 -6 -2 -12q-7 -22 -35 -21q-37 0 -62 24l-496 531v-516q0 -14 -12 -26.5t-26 -12.5h-13 q-14 0 -26.5 12.5t-12.5 26.5z" />
<glyph unicode="l" horiz-adv-x="417" d="M164 27v1456q0 16 10 27.5t25 11.5h20q14 0 24.5 -11.5t10.5 -27.5v-1456q0 -16 -10.5 -27.5t-24.5 -11.5h-20q-14 0 -24.5 11.5t-10.5 27.5z" />
<glyph unicode="m" horiz-adv-x="1527" d="M143 39v1020q0 41 37 41h17q37 0 36 -41v-37q180 88 312 88q125 0 194 -84q174 84 330 84q139 0 227 -83t88 -255v-733q0 -39 -34 -39h-21q-35 0 -35 39v733q0 139 -60 198.5t-179 59.5q-133 0 -277 -69q31 -78 31 -181v-741q0 -39 -31 -39h-30q-29 0 -29 39v741 q0 250 -193 250q-113 0 -293 -86v-905q0 -39 -30 -39h-29q-31 0 -31 39z" />
<glyph unicode="n" horiz-adv-x="1067" d="M143 39v1020q0 41 37 41h17q37 0 36 -41v-33q174 84 330 84q160 0 260.5 -95t100.5 -296v-680q0 -16 -11.5 -27.5t-27.5 -11.5h-15q-14 0 -25 11.5t-11 27.5v680q0 311 -277 311q-150 0 -324 -84v-907q0 -14 -12 -26.5t-26 -12.5h-13q-14 0 -26.5 12.5t-12.5 26.5z" />
<glyph unicode="o" horiz-adv-x="1069" d="M113 477v144q0 236 107.5 362.5t314 126.5t314 -127t107.5 -362v-144q0 -236 -107.5 -362.5t-314 -126.5t-314 126.5t-107.5 362.5zM203 477q0 -410 331.5 -409.5t331.5 409.5v144q0 410 -331.5 409.5t-331.5 -409.5v-144z" />
<glyph unicode="p" horiz-adv-x="1032" d="M143 -360v1392q0 31 31 39q190 39 344 39q205 0 303.5 -133t98.5 -365v-135q0 -489 -402 -489q-147 0 -285 30v-378q0 -16 -10 -27.5t-24 -11.5h-21q-14 0 -24.5 11.5t-10.5 27.5zM233 94q127 -27 285 -26q166 0 238.5 101t72.5 308v135q0 207 -72.5 312.5t-238.5 105.5 q-125 0 -285 -26v-910z" />
<glyph unicode="q" horiz-adv-x="1032" d="M113 477v135q0 231 98 364.5t303 133.5q154 0 344 -39q31 -8 31 -39v-1392q0 -16 -10.5 -27.5t-24.5 -11.5h-20q-14 0 -24.5 11t-10.5 28v378q-137 -31 -285 -30q-401 0 -401 489zM203 477q0 -207 72.5 -308t238.5 -101q158 0 285 26v910q-160 27 -285 26 q-166 0 -238.5 -105.5t-72.5 -312.5v-135z" />
<glyph unicode="r" horiz-adv-x="632" d="M143 39v1020q0 41 37 41h17q37 0 36 -41v-43q145 94 285 94q55 0 55 -31v-16q0 -33 -55 -33q-135 0 -285 -94v-897q0 -14 -12 -26.5t-26 -12.5h-13q-14 0 -26.5 12.5t-12.5 26.5z" />
<glyph unicode="s" horiz-adv-x="901" d="M102 49v23q0 37 45 28q197 -33 302 -32q123 0 191.5 44t68.5 160q0 63 -44 107.5t-173 116.5l-132 71q-131 72 -189 133.5t-58 157.5q0 133 88 192.5t225 59.5q135 0 293 -18q16 -2 24.5 -5.5t13.5 -10.5t5 -19v-17q0 -25 -9.5 -30.5t-33.5 -1.5q-195 23 -285 22 q-113 0 -172 -36t-59 -136q0 -63 47 -108t151 -105l138 -76q141 -78 200.5 -140t59.5 -157q0 -285 -355 -284q-150 0 -297 28l-24 7q-8 2 -14.5 9t-6.5 17z" />
<glyph unicode="t" horiz-adv-x="778" d="M82 1049v20q0 31 39 31h203v211q0 39 34 39h23q33 0 33 -39v-211h243q39 0 39 -31v-20q0 -33 -39 -33h-243v-807q0 -86 32.5 -113.5t108.5 -27.5h98q43 0 43 -29v-12q0 -29 -34 -33q-47 -6 -107 -6q-117 0 -174 48t-57 173v807h-203q-39 0 -39 33z" />
<glyph unicode="u" horiz-adv-x="1067" d="M143 381v680q0 16 11.5 27.5t27.5 11.5h15q14 0 25 -11.5t11 -27.5v-680q0 -311 277 -311q141 0 324 84v907q0 16 11 27.5t27 11.5h13q16 0 27.5 -11.5t11.5 -27.5v-1020q0 -41 -37 -41h-17q-37 0 -36 41v33q-174 -84 -330 -84q-160 0 -260.5 95t-100.5 296z" />
<glyph unicode="v" horiz-adv-x="983" d="M82 1049q-3 10 -3 17q0 11 5 19q8 14 29 15h20q27 0 37 -37l262 -924q23 -74 62 -73q35 0 57 73l262 924q10 37 37 37h24q30 0 31 -28q0 -10 -4 -23l-268 -932q-20 -76 -54 -102.5t-85 -26.5q-106 0 -144 129z" />
<glyph unicode="w" horiz-adv-x="1540" d="M102 1051q-2 10 -2 17q0 31 39 32h13q25 0 32 -29l222 -952q8 -35 13 -43t15 -8q12 0 27 49l221 790q20 74 88 74t88 -74l221 -790q14 -49 27 -49q16 0 29 51l221 952q8 29 33 29h12q39 0 39 -32q0 -8 -2 -17l-226 -953q-14 -59 -36.5 -84.5t-69.5 -25.5 q-45 0 -66.5 26.5t-38.5 89.5l-217 779q-6 18 -14 18t-14 -18l-217 -779q-16 -63 -38 -89.5t-67 -26.5q-47 0 -69.5 25.5t-36.5 84.5z" />
<glyph unicode="x" horiz-adv-x="1009" d="M88 25q0 14 10 28l361 510l-348 488q-8 12 -9 22q0 27 37 27h13q29 0 38 -17l324 -450l313 446q14 20 39 21h19q31 0 30 -25q0 -14 -14 -35l-338 -481l363 -508q6 -10 6 -22q0 -29 -29 -29h-16q-27 0 -39 16l-340 476l-334 -476q-12 -16 -22 -16h-35q-29 0 -29 25z" />
<glyph unicode="y" horiz-adv-x="995" d="M78 -336q0 35 43 29q92 -12 133 -12q111 0 159 44t85 179l26 96h-28q-51 0 -78 22.5t-47 92.5l-277 936q-3 11 -3 20q0 29 36 29h18q25 0 33 -29l277 -942q12 -45 47 -45h47l280 989q8 27 37 27h19q33 0 33 -28q0 -10 -5 -23l-335 -1164q-47 -164 -118 -224t-214 -60 q-53 0 -127 12q-41 6 -41 29v22z" />
<glyph unicode="z" horiz-adv-x="913" d="M82 84q0 45 37 92l600 801q8 10 8 20q0 18 -29 19h-538q-41 0 -41 31v20q0 33 41 33h536q119 0 119 -88q0 -47 -33 -92l-594 -797q-10 -16 -10 -25q0 -14 19 -14h594q41 0 40 -31v-20q0 -33 -40 -33h-586q-123 0 -123 84z" />
<glyph unicode="{" horiz-adv-x="614" d="M61 524v74q80 57 103.5 112.5t23.5 168.5v417q0 127 55.5 176.5t196.5 49.5h95q39 0 38 -35v-17q0 -33 -38 -32h-95q-102 0 -131.5 -26t-29.5 -116v-417q0 -115 -28 -186.5t-104 -133.5q74 -59 103 -131t29 -184v-418q0 -90 29.5 -115.5t131.5 -25.5h95q39 0 38 -33v-17 q0 -35 -38 -34h-95q-143 0 -197.5 48t-54.5 177v418q0 113 -23.5 168t-103.5 112z" />
<glyph unicode="|" horiz-adv-x="458" d="M184 -360v1843q0 16 10.5 27.5t24.5 11.5h21q14 0 24 -11.5t10 -27.5v-1843q0 -16 -10 -27.5t-24 -11.5h-21q-14 0 -24.5 11.5t-10.5 27.5z" />
<glyph unicode="}" horiz-adv-x="614" d="M41 -348q0 33 39 33h94q102 0 132 25.5t30 115.5v418q0 113 28.5 184.5t102.5 130.5q-76 61 -103.5 133t-27.5 187v417q0 90 -30 116t-132 26h-94q-39 0 -39 32v17q0 35 39 35h94q141 0 196.5 -49.5t55.5 -176.5v-417q0 -113 23.5 -168.5t103.5 -112.5v-74 q-80 -57 -103.5 -112.5t-23.5 -167.5v-418q0 -129 -54.5 -177t-197.5 -48h-94q-39 0 -39 34v17z" />
<glyph unicode="~" d="M213 776v62q0 106 49 161.5t133 55.5q90 0 164 -70l117 -113q68 -63 112 -63q55 0 81 28.5t26 102.5v64q0 37 23 36h30q27 0 27 -36v-64q0 -213 -184 -213q-88 0 -158 66l-117 112q-76 72 -121 72q-102 0 -102 -139v-62q0 -39 -23 -39h-30q-27 0 -27 39z" />
<glyph unicode="&#xa1;" horiz-adv-x="417" d="M164 -385v1090q0 16 12 27t27 11h12q14 0 26.5 -11t12.5 -27v-1090q0 -16 -12.5 -27.5t-26.5 -11.5h-12q-14 0 -26.5 11.5t-12.5 27.5zM164 920v151q0 16 11 27.5t28 11.5h12q16 0 27.5 -11.5t11.5 -27.5v-151q0 -14 -12.5 -26.5t-26.5 -12.5h-12q-14 0 -26.5 12.5 t-12.5 26.5z" />
<glyph unicode="&#xa2;" d="M193 483v138q0 207 89 340t273 147v209q0 39 33 39h20q33 0 33 -39v-207q68 -2 205 -18q39 -6 39 -37v-15q0 -29 -33 -28h-10q-145 18 -244 18q-315 0 -315 -409v-138q0 -416 315 -415q98 0 244 18h10q33 0 33 -29v-14q0 -31 -39 -37q-137 -16 -205 -18v-207 q0 -39 -33 -39h-20q-33 0 -33 39v209q-184 14 -273 150t-89 343z" />
<glyph unicode="&#xa3;" d="M145 791v18q0 35 41 35h105v151q0 266 92 401.5t315 135.5q152 0 303 -19q39 -6 39 -32v-17q0 -31 -30 -30h-13q-143 16 -299 16q-184 0 -248.5 -111.5t-64.5 -343.5v-151h502q37 0 37 -35v-18q0 -35 -41 -35h-498v-410q0 -147 -66 -262h685q41 0 40 -29v-22 q0 -33 -40 -33h-762q-41 0 -41 41q0 12 6 22q84 141 84 283v410h-109q-37 0 -37 35z" />
<glyph unicode="&#xa4;" d="M113 330q0 16 14 30l162 162q-86 109 -86 244q0 133 84 240l-160 159q-14 14 -14 31q0 14 10 25l14 14q8 8 21 8q18 0 32 -14l160 -160q106 84 240 84q135 0 244 -86l163 164q14 14 31 14q12 0 23 -10l14 -14q10 -10 10 -23q0 -16 -14 -31l-164 -163q82 -102 82 -238 q0 -133 -84 -240l166 -166q14 -14 14 -30q0 -14 -10 -25l-14 -14q-10 -10 -23 -10q-16 0 -31 14l-166 168q-106 -84 -239 -84q-135 0 -238 82l-164 -164q-14 -14 -30 -14q-12 0 -23 10l-14 14q-10 11 -10 23zM289 766q0 -127 89 -215t214 -88t214 88t89 215q0 125 -89 213 t-214 88q-127 0 -215 -88t-88 -213z" />
<glyph unicode="&#xa5;" d="M92 520v19q0 33 41 32h416v62l-125 248h-295q-37 0 -37 32v19q0 33 41 33h248l-252 501q-9 18 -9 30q0 25 38 26h24q20 0 33 -25l381 -758l379 758q12 25 33 25h22q37 0 37 -26q0 -12 -8 -30l-252 -501h252q37 0 37 -33v-19q0 -33 -41 -32h-291l-125 -248v-62h420 q37 0 37 -32v-19q0 -33 -41 -33h-416v-448q0 -16 -10.5 -27.5t-24.5 -11.5h-20q-14 0 -24.5 11.5t-10.5 27.5v448h-420q-37 0 -37 33z" />
<glyph unicode="&#xa6;" horiz-adv-x="458" d="M184 319q0 16 10.5 27.5t24.5 11.5h21q14 0 24 -11t10 -28v-712q0 -16 -10 -27.5t-24 -11.5h-21q-14 0 -24.5 11t-10.5 28v712zM184 739v713q0 16 10.5 27.5t24.5 11.5h21q14 0 24 -11.5t10 -27.5v-713q0 -16 -10 -27.5t-24 -11.5h-21q-14 0 -24.5 11.5t-10.5 27.5z" />
<glyph unicode="&#xa7;" horiz-adv-x="1067" d="M106 770q0 141 72 219q-72 80 -72 211q0 172 111 252t361 80q197 0 311 -14q35 -2 35 -43v-7q0 -39 -39 -39q-2 0 -4 1q-12 0 -70.5 5t-122 8t-110.5 3q-201 0 -291 -58.5t-90 -187.5q0 -88 51 -147.5t198 -149.5l201 -123q188 -115 251 -203t63 -206q0 -141 -60 -228 q59 -80 60 -202q0 -80 -19.5 -142.5t-69 -120t-147.5 -89t-240 -31.5q-182 0 -313 16q-37 4 -37 39v12q0 35 39 35h4q213 -16 307 -16q219 0 302 74.5t83 222.5q0 102 -54 166.5t-222 166.5l-205 125q-168 102 -225.5 178t-57.5 193zM197 770q0 -88 51 -147.5t198 -149.5 l201 -123q129 -80 191 -137q33 66 32 158q0 102 -54 166.5t-222 167.5l-205 124q-80 49 -141 97q-51 -58 -51 -156z" />
<glyph unicode="&#xa8;" horiz-adv-x="675" d="M139 1354v151q0 14 12.5 26.5t26.5 12.5h12q14 0 26.5 -12t12.5 -27v-151q0 -16 -11 -27.5t-28 -11.5h-12q-16 0 -27.5 11.5t-11.5 27.5zM446 1354v151q0 14 12.5 26.5t26.5 12.5h13q14 0 26.5 -12t12.5 -27v-151q0 -16 -11.5 -27.5t-27.5 -11.5h-13q-16 0 -27.5 11.5 t-11.5 27.5z" />
<glyph unicode="&#xa9;" horiz-adv-x="1495" d="M92 766q0 272 191.5 465.5t461.5 193.5q272 0 465 -193.5t193 -465.5t-192.5 -462.5t-465 -190.5t-463 190.5t-190.5 462.5zM168 766q0 -240 169 -408t408.5 -168t408.5 168t169 408t-169 410t-408.5 170t-408.5 -170t-169 -410zM428 698v148q0 195 83 281.5t210 86.5 q106 0 199 -12q33 -6 32 -31v-16q0 -25 -28 -25h-9q-102 10 -194 11q-96 0 -155.5 -70t-59.5 -225v-148q0 -156 59.5 -225.5t155.5 -69.5q92 0 194 11h5q33 0 32 -29v-10q0 -27 -32 -33q-92 -12 -199 -12q-127 0 -210 86.5t-83 281.5z" />
<glyph unicode="&#xaa;" horiz-adv-x="548" d="M57 1090v14q0 92 62.5 135t208.5 43h75v29q0 84 -26.5 116.5t-97.5 32.5q-70 0 -152 -10h-4q-31 0 -31 27v6q0 25 33 28q76 10 154 11q193 0 192 -211v-350q0 -29 -22 -33q-80 -23 -166 -23q-123 0 -174.5 44.5t-51.5 140.5zM123 1090q0 -66 31.5 -94.5t128.5 -28.5 q47 0 120 12v240h-73q-119 0 -163 -26t-44 -89v-14z" />
<glyph unicode="&#xab;" horiz-adv-x="1095" d="M45 551q0 31 29 59l364 334q18 14 33 14q12 0 21 -8l14 -14q10 -10 10 -23q0 -18 -16 -30l-363 -332l363 -332q16 -12 16 -31q0 -12 -10 -22l-14 -14q-8 -8 -21 -9q-14 0 -33 15l-364 334q-29 24 -29 59zM516 551q0 31 29 59l364 334q18 14 33 14q12 0 21 -8l14 -14 q10 -10 10 -23q0 -18 -16 -30l-363 -332l363 -332q16 -12 16 -31q0 -12 -10 -22l-14 -14q-8 -8 -21 -9q-14 0 -33 15l-364 334q-29 24 -29 59z" />
<glyph unicode="&#xac;" d="M180 995v21q0 33 41 33h756q33 0 33 -37v-418q0 -41 -33 -41h-21q-33 0 -32 41v369h-703q-41 -1 -41 32z" />
<glyph unicode="&#xad;" horiz-adv-x="704" d="M106 559v16q0 16 11.5 26.5t27.5 10.5h414q16 0 27.5 -10t11.5 -27v-16q0 -33 -39 -33h-414q-39 0 -39 33z" />
<glyph unicode="&#xae;" horiz-adv-x="1261" d="M92 991q0 223 158 381t381 158t380.5 -158t157.5 -381t-157.5 -379.5t-380.5 -156.5t-381 156.5t-158 379.5zM166 991q0 -193 136 -329t329 -136q195 0 331 136.5t136 329t-137.5 329.5t-330 137t-328.5 -136t-136 -331zM422 682v631q0 29 29 33q61 4 141 4 q129 0 193.5 -45t64.5 -154v-4q0 -154 -150 -189l168 -260q6 -10 6 -22q0 -27 -28 -27h-10q-16 0 -27 15l-186 284q-6 0 -15.5 1t-15.5 1h-100v-268q0 -12 -9.5 -22.5t-21.5 -10.5h-8q-12 0 -21.5 10.5t-9.5 22.5zM492 1018q14 0 52 -1t48 -1q104 0 146 28.5t42 102.5v4 q0 72 -44 101.5t-144 29.5q-72 0 -100 -2v-262z" />
<glyph unicode="&#xaf;" horiz-adv-x="675" d="M25 1442v22q0 31 41 31h544q41 0 41 -31v-22q0 -33 -41 -33h-544q-41 0 -41 33z" />
<glyph unicode="&#xb0;" horiz-adv-x="677" d="M61 1255.5q0 112.5 82 194.5t197 82t195.5 -82t80.5 -194.5t-80.5 -194.5t-195.5 -82t-197 82t-82 194.5zM141 1255.5q0 -81.5 58.5 -140t140.5 -58.5t140.5 58.5t58.5 140t-58.5 141t-140.5 59.5t-140.5 -59.5t-58.5 -141z" />
<glyph unicode="&#xb1;" d="M139 33v20q0 33 41 33h830q41 0 41 -33v-20q0 -33 -41 -33h-830q-41 0 -41 33zM139 791v20q0 33 41 33h371v373q0 41 33 40h20q33 0 33 -40v-373h373q41 0 41 -33v-20q0 -33 -41 -33h-373v-371q0 -41 -33 -41h-20q-33 0 -33 41v371h-371q-41 0 -41 33z" />
<glyph unicode="&#xb2;" horiz-adv-x="653" d="M80 719v67q0 92 36 161t142 143l113 77q70 47 94 82t24 94q0 119 -188 119q-68 0 -164 -10q-41 -4 -41 25v6q0 35 39 39q80 12 166 12q272 0 272 -191q0 -68 -32.5 -125t-122.5 -116l-113 -76q-90 -61 -116.5 -111.5t-26.5 -128.5v-28h364q37 0 37 -33v-12q0 -33 -37 -33 h-409q-16 0 -26.5 12.5t-10.5 26.5z" />
<glyph unicode="&#xb3;" horiz-adv-x="653" d="M84 725q0 -33 33 -37q80 -14 164 -14q141 0 214.5 57t73.5 191v22q0 125 -96 178q96 61 96 183v14q0 123 -71.5 169t-216.5 46q-84 0 -164 -14q-33 -4 -33 -37v-8q0 -29 39 -25q111 12 158 12q109 0 156.5 -30.5t47.5 -112.5v-14q0 -139 -139 -140h-207q-37 0 -37 -35v-8 q0 -35 37 -35h207q139 0 139 -143v-22q0 -94 -50 -135.5t-154 -41.5q-47 0 -158 13q-39 4 -39 -25v-8z" />
<glyph unicode="&#xb4;" horiz-adv-x="675" d="M242 1280q0 12 8 20l205 263q25 31 47 30h53q23 0 23 -14q0 -8 -9 -16l-219 -263q-29 -35 -45 -34h-45q-18 0 -18 14z" />
<glyph unicode="&#xb5;" horiz-adv-x="1067" d="M143 -360v1421q0 16 11.5 27.5t27.5 11.5h15q14 0 25 -11.5t11 -27.5v-682q0 -311 314 -311q152 0 287 38v955q0 16 11 27.5t27 11.5h13q16 0 27.5 -11.5t11.5 -27.5v-983q0 -29 -27 -37q-164 -53 -350 -53q-207 0 -314 118v-466q0 -16 -10 -27.5t-24 -11.5h-21 q-14 0 -24.5 11.5t-10.5 27.5z" />
<glyph unicode="&#xb6;" horiz-adv-x="1226" d="M92 1020v45q0 217 128 337t345 120h486q33 0 32 -39v-1843q0 -16 -10 -27.5t-24 -11.5h-21q-14 0 -24.5 11t-10.5 28v1798h-114v-1798q0 -16 -10.5 -27.5t-24.5 -11.5h-21q-14 0 -24.5 11t-10.5 28v923h-223q-217 0 -345 120t-128 337z" />
<glyph unicode="&#xb7;" horiz-adv-x="344" d="M127 737v152q0 16 12.5 27.5t26.5 11.5h12q14 0 26.5 -11.5t12.5 -27.5v-152q0 -16 -11 -27.5t-28 -11.5h-12q-16 0 -27.5 11.5t-11.5 27.5z" />
<glyph unicode="&#xb8;" horiz-adv-x="675" d="M96 -385q0 12 8 20l172 222q25 31 48 30h53q23 0 22 -14q0 -8 -8 -16l-186 -222q-29 -35 -45 -34h-45q-19 0 -19 14z" />
<glyph unicode="&#xb9;" horiz-adv-x="430" d="M35 1470q0 -40 32 -39q4 0 9 1l112 16v-731q0 -37 33 -37h17q33 0 32 37v776q0 23 -8 33q-6 7 -21 7q-6 0 -14 -1l-155 -23q-37 -8 -37 -39z" />
<glyph unicode="&#xba;" horiz-adv-x="587" d="M61 1176v75q0 129 59.5 200t174.5 71t173 -71t58 -200v-75q0 -129 -58 -200t-173 -71t-174.5 71t-59.5 200zM129 1176q0 -209 166 -209q164 0 164 209v75q0 209 -164 209q-166 0 -166 -209v-75z" />
<glyph unicode="&#xbb;" horiz-adv-x="1095" d="M109 188q0 18 16 31l362 332l-362 332q-16 12 -16 30q0 12 10 23l14 14q8 8 21 8q14 0 32 -14l365 -334q29 -29 29 -59q0 -35 -29 -59l-365 -334q-18 -14 -32 -15q-12 0 -21 9l-14 14q-10 10 -10 22zM580 188q0 18 16 31l362 332l-362 332q-16 12 -16 30q0 12 10 23 l14 14q8 8 21 8q14 0 32 -14l365 -334q29 -29 29 -59q0 -35 -29 -59l-365 -334q-18 -14 -32 -15q-12 0 -21 9l-14 14q-10 10 -10 22z" />
<glyph unicode="&#xbc;" horiz-adv-x="1294" d="M61 1470q0 -40 32 -39q4 0 9 1l113 16v-731q0 -37 33 -37h16q33 0 33 37v776q0 23 -8 33q-6 7 -21 7q-6 0 -14 -1l-156 -23q-37 -8 -37 -39zM90 12.5q0 12.5 10 26.5l844 1444q23 39 43 39h57q16 0 16.5 -10.5t-11.5 -28.5l-844 -1444q-23 -39 -43 -39h-56 q-16 0 -16 12.5zM645 313q0 -33 23.5 -53t62.5 -20h289v-203q0 -37 33 -37h16q33 0 33 37v203h94q37 0 37 34v9q0 33 -37 32h-94v471q0 68 -60 68q-49 0 -73 -39l-301 -440q-23 -33 -23 -62zM735 330l275 411q5 7 7.5 7t2.5 -9v-424h-277q-11 0 -10 7q-1 3 2 8z" />
<glyph unicode="&#xbd;" horiz-adv-x="1357" d="M61 1470q0 -40 32 -39q4 0 9 1l113 16v-731q0 -37 33 -37h16q33 0 33 37v776q0 23 -8 33q-6 7 -21 7q-6 0 -14 -1l-156 -23q-37 -8 -37 -39zM90 12.5q0 12.5 10 26.5l844 1444q23 39 43 39h57q16 0 16.5 -10.5t-11.5 -28.5l-844 -1444q-23 -39 -43 -39h-56 q-16 0 -16 12.5zM803 39v68q0 92 35.5 160.5t142.5 142.5l113 77q70 47 94 82t24 95q0 119 -188 118q-68 0 -164 -10q-41 -4 -41 25v6q0 35 39 39q80 12 166 12q272 0 272 -190q0 -68 -32.5 -125.5t-122.5 -116.5l-113 -76q-90 -61 -116.5 -111.5t-26.5 -127.5v-29h364 q37 0 37 -33v-12q0 -33 -37 -33h-409q-16 0 -26.5 12.5t-10.5 26.5z" />
<glyph unicode="&#xbe;" horiz-adv-x="1460" d="M61 725q0 -33 33 -37q78 -14 164 -14q141 0 215 57t74 191v22q0 125 -96 178q96 61 96 183v14q0 123 -72 169t-217 46q-86 0 -164 -14q-33 -4 -33 -37v-8q0 -29 39 -25q111 12 158 12q109 0 157 -30.5t48 -112.5v-14q0 -139 -139 -140h-207q-37 0 -37 -35v-8 q0 -35 37 -35h207q139 0 139 -143v-22q0 -94 -50.5 -135.5t-154.5 -41.5q-47 0 -158 13q-39 4 -39 -25v-8zM256 12.5q0 12.5 10 26.5l844 1444q23 39 43 39h57q16 0 16.5 -10.5t-12.5 -28.5l-843 -1444q-23 -39 -43 -39h-56q-16 0 -16 12.5zM811 313q0 -33 23.5 -53 t62.5 -20h289v-203q0 -37 33 -37h16q33 0 33 37v203h94q37 0 37 34v9q0 33 -37 32h-94v471q0 68 -60 68q-49 0 -73 -39l-301 -440q-23 -33 -23 -62zM901 330l275 411q5 7 7.5 7t2.5 -9v-424h-277q-11 0 -11 7q0 3 3 8z" />
<glyph unicode="&#xbf;" horiz-adv-x="868" d="M123 -121q0 94 46 174t179 213l62 62q78 78 100 124t22 130v123q0 16 11.5 27t27.5 11h13q16 0 27.5 -11t11.5 -27v-123q0 -100 -31 -165t-121 -155l-57 -57q-119 -119 -156 -183.5t-37 -142.5v-16q0 -115 73 -166t224 -51q80 0 248 14h4q27 0 27 -25v-16q0 -35 -35 -39 q-117 -14 -244 -14q-170 0 -282.5 70.5t-112.5 226.5v16zM535 920v151q0 16 11 27.5t27 11.5h13q16 0 27.5 -11.5t11.5 -27.5v-151q0 -14 -11.5 -26.5t-27.5 -12.5h-13q-16 0 -27 12.5t-11 26.5z" />
<glyph unicode="&#xc0;" horiz-adv-x="1267" d="M82 45l420 1387q31 100 133 100t131 -98l420 -1389q4 -13 3 -22q0 -29 -32 -29h-24q-25 0 -33 26l-172 555h-590l-168 -555q-8 -27 -33 -26h-26q-32 0 -33 29q0 9 4 22zM362 666h543l-223 743q-12 41 -47 41q-37 0 -47 -39zM416 1939q0 14 22 15h54q23 0 47 -31l204 -262 q8 -8 9 -21q0 -14 -19 -14h-45q-16 0 -45 35l-219 262q-8 8 -8 16z" />
<glyph unicode="&#xc1;" horiz-adv-x="1267" d="M82 45l420 1387q31 100 133 100t131 -98l420 -1389q4 -13 3 -22q0 -29 -32 -29h-24q-25 0 -33 26l-172 555h-590l-168 -555q-8 -27 -33 -26h-26q-32 0 -33 29q0 9 4 22zM362 666h543l-223 743q-12 41 -47 41q-37 0 -47 -39zM514 1638q0 12 8 21l205 262q25 31 47 31h53 q23 0 23 -15q0 -8 -8 -16l-219 -262q-29 -35 -45 -35h-46q-18 0 -18 14z" />
<glyph unicode="&#xc2;" horiz-adv-x="1267" d="M82 45l420 1387q31 100 133 100t131 -98l420 -1389q4 -13 3 -22q0 -29 -32 -29h-24q-25 0 -33 26l-172 555h-590l-168 -555q-8 -27 -33 -26h-26q-32 0 -33 29q0 9 4 22zM332 1640q0 12 8 21l205 262q25 31 47 31h82q23 0 47 -31l205 -262q8 -8 8 -21q0 -14 -19 -14h-45 q-16 0 -45 35l-192 231l-193 -231q-29 -35 -45 -35h-45q-18 0 -18 14zM362 666h543l-223 743q-12 41 -47 41q-37 0 -47 -39z" />
<glyph unicode="&#xc3;" horiz-adv-x="1267" d="M82 45l420 1387q31 100 133 100t131 -98l420 -1389q4 -13 3 -22q0 -29 -32 -29h-24q-25 0 -33 26l-172 555h-590l-168 -555q-8 -27 -33 -26h-26q-32 0 -33 29q0 9 4 22zM305 1659v53q0 92 43 139t119 47q80 0 135 -53l98 -96q57 -57 101 -57q82 0 82 108v53q0 33 20 33 h35q23 0 23 -33v-53q0 -92 -42 -139t-118 -47q-82 0 -137 53l-99 96q-57 57 -98 58q-84 0 -84 -109v-53q0 -33 -21 -33h-34q-23 0 -23 33zM362 666h543l-223 743q-12 41 -47 41q-37 0 -47 -39z" />
<glyph unicode="&#xc4;" horiz-adv-x="1267" d="M82 45l420 1387q31 100 133 100t131 -98l420 -1389q4 -13 3 -22q0 -29 -32 -29h-24q-25 0 -33 26l-172 555h-590l-168 -555q-8 -27 -33 -26h-26q-32 0 -33 29q0 9 4 22zM362 666h543l-223 743q-12 41 -47 41q-37 0 -47 -39zM434 1706v152q0 14 12.5 26t26.5 12h12 q14 0 26.5 -12t12.5 -26v-152q0 -16 -11 -27.5t-28 -11.5h-12q-16 0 -27.5 11.5t-11.5 27.5zM741 1706v152q0 14 12.5 26t26.5 12h13q14 0 26 -12t12 -26v-152q0 -16 -11 -27.5t-27 -11.5h-13q-16 0 -27.5 11.5t-11.5 27.5z" />
<glyph unicode="&#xc5;" horiz-adv-x="1267" d="M82 45l420 1387q31 100 133 100t131 -98l420 -1389q4 -13 3 -22q0 -29 -32 -29h-24q-25 0 -33 26l-172 555h-590l-168 -555q-8 -27 -33 -26h-26q-32 0 -33 29q0 9 4 22zM362 666h543l-223 743q-12 41 -47 41q-37 0 -47 -39zM442 1816.5q0 77.5 56.5 134t134.5 56.5 t134 -56.5t56 -134t-56 -134t-134 -56.5t-134.5 56.5t-56.5 134zM516 1816.5q0 -49.5 34 -84t83 -34.5t84 34.5t35 84t-35 84t-84 34.5t-83 -34.5t-34 -84z" />
<glyph unicode="&#xc6;" horiz-adv-x="1800" d="M63 45l420 1376q31 100 133 101h1029q39 0 38 -35v-17q0 -33 -38 -32h-687v-596h687q39 0 38 -33v-21q0 -35 -38 -34h-687v-588q0 -45 15.5 -63.5t64.5 -18.5h607q39 0 38 -33v-16q0 -35 -38 -35h-607q-88 0 -129 40t-41 126v409h-549l-167 -555q-8 -27 -33 -26h-27 q-32 0 -32 29q-1 9 3 22zM344 666h524v772h-252q-37 0 -47 -39z" />
<glyph unicode="&#xc7;" horiz-adv-x="1099" d="M123 625v270q0 176 41 305t114.5 198.5t158.5 101.5t188 32q176 0 354 -21q39 -4 39 -34v-25q0 -29 -39 -25q-166 18 -354 19q-186 0 -299 -132t-113 -419v-270q0 -287 112.5 -419t299.5 -132q188 0 354 18q39 4 39 -24v-25q0 -31 -39 -35q-178 -20 -354 -20 q-102 0 -187.5 31.5t-159 101t-114.5 199t-41 305.5zM397 -385q0 12 9 20l172 222q25 31 47 30h53q23 0 22 -14q0 -8 -8 -16l-186 -222q-29 -35 -45 -34h-45q-19 0 -19 14z" />
<glyph unicode="&#xc8;" horiz-adv-x="1091" d="M164 229v1063q0 125 62.5 177.5t185.5 52.5h528q39 0 39 -35v-17q0 -33 -39 -32h-528q-82 0 -120 -29t-38 -117v-450h686q39 0 39 -33v-21q0 -35 -39 -34h-686v-525q0 -88 38 -116.5t120 -28.5h528q39 0 39 -33v-16q0 -35 -39 -35h-528q-123 0 -185.5 52t-62.5 177z M350 1939q0 14 23 15h53q23 0 47 -31l205 -262q8 -8 8 -21q0 -14 -18 -14h-45q-16 0 -45 35l-220 262q-8 8 -8 16z" />
<glyph unicode="&#xc9;" horiz-adv-x="1091" d="M164 229v1063q0 125 62.5 177.5t185.5 52.5h528q39 0 39 -35v-17q0 -33 -39 -32h-528q-82 0 -120 -29t-38 -117v-450h686q39 0 39 -33v-21q0 -35 -39 -34h-686v-525q0 -88 38 -116.5t120 -28.5h528q39 0 39 -33v-16q0 -35 -39 -35h-528q-123 0 -185.5 52t-62.5 177z M494 1640q0 12 8 21l205 262q25 31 47 31h53q23 0 22 -15q0 -8 -8 -16l-219 -262q-29 -35 -45 -35h-45q-18 0 -18 14z" />
<glyph unicode="&#xca;" horiz-adv-x="1091" d="M164 229v1063q0 125 62.5 177.5t185.5 52.5h528q39 0 39 -35v-17q0 -33 -39 -32h-528q-82 0 -120 -29t-38 -117v-450h686q39 0 39 -33v-21q0 -35 -39 -34h-686v-525q0 -88 38 -116.5t120 -28.5h528q39 0 39 -33v-16q0 -35 -39 -35h-528q-123 0 -185.5 52t-62.5 177z M268 1640q0 12 8 21l205 262q25 31 47 31h82q23 0 47 -31l205 -262q8 -8 8 -21q0 -14 -18 -14h-45q-16 0 -45 35l-193 231l-192 -231q-29 -35 -45 -35h-45q-19 0 -19 14z" />
<glyph unicode="&#xcb;" horiz-adv-x="1091" d="M164 229v1063q0 125 62.5 177.5t185.5 52.5h528q39 0 39 -35v-17q0 -33 -39 -32h-528q-82 0 -120 -29t-38 -117v-450h686q39 0 39 -33v-21q0 -35 -39 -34h-686v-525q0 -88 38 -116.5t120 -28.5h528q39 0 39 -33v-16q0 -35 -39 -35h-528q-123 0 -185.5 52t-62.5 177z M383 1706v152q0 14 11.5 26t27.5 12h12q16 0 27.5 -12t11.5 -26v-152q0 -16 -11 -27.5t-28 -11.5h-12q-16 0 -27.5 11.5t-11.5 27.5zM690 1706v152q0 14 11.5 26t27.5 12h12q16 0 27.5 -12t11.5 -26v-152q0 -16 -11 -27.5t-28 -11.5h-12q-16 0 -27.5 11.5t-11.5 27.5z" />
<glyph unicode="&#xcc;" horiz-adv-x="458" d="M25 1939q0 14 22 15h53q23 0 47 -31l205 -262q8 -8 8 -21q0 -14 -18 -14h-45q-16 0 -45 35l-219 262q-8 8 -8 16zM184 39v1444q0 16 10.5 27.5t24.5 11.5h21q14 0 24 -11.5t10 -27.5v-1444q0 -16 -10 -27.5t-24 -11.5h-21q-14 0 -24.5 11.5t-10.5 27.5z" />
<glyph unicode="&#xcd;" horiz-adv-x="458" d="M102 1640q0 12 9 21l204 262q25 31 47 31h54q23 0 22 -15q0 -8 -8 -16l-219 -262q-29 -35 -45 -35h-45q-19 0 -19 14zM184 39v1444q0 16 10.5 27.5t24.5 11.5h21q14 0 24 -11.5t10 -27.5v-1444q0 -16 -10 -27.5t-24 -11.5h-21q-14 0 -24.5 11.5t-10.5 27.5z" />
<glyph unicode="&#xce;" horiz-adv-x="458" d="M-72 1640q0 12 9 21l204 262q25 31 47 31h82q23 0 47 -31l205 -262q8 -8 8 -21q0 -14 -18 -14h-45q-16 0 -45 35l-193 231l-192 -231q-29 -35 -45 -35h-45q-19 0 -19 14zM184 39v1444q0 16 10.5 27.5t24.5 11.5h21q14 0 24 -11.5t10 -27.5v-1444q0 -16 -10 -27.5 t-24 -11.5h-21q-14 0 -24.5 11.5t-10.5 27.5z" />
<glyph unicode="&#xcf;" horiz-adv-x="458" d="M31 1706v152q0 14 11 26t28 12h12q16 0 27.5 -12t11.5 -26v-152q0 -16 -11.5 -27.5t-27.5 -11.5h-12q-16 0 -27.5 11.5t-11.5 27.5zM184 39v1444q0 16 10.5 27.5t24.5 11.5h21q14 0 24 -11.5t10 -27.5v-1444q0 -16 -10 -27.5t-24 -11.5h-21q-14 0 -24.5 11.5t-10.5 27.5z M338 1706v152q0 14 11 26t28 12h12q16 0 27.5 -12t11.5 -26v-152q0 -16 -11 -27.5t-28 -11.5h-12q-16 0 -27.5 11.5t-11.5 27.5z" />
<glyph unicode="&#xd0;" horiz-adv-x="1255" d="M-20 788v21q0 33 38 33h146v635q0 31 35 39q94 16 336 16q598 0 598 -645v-254q0 -336 -160 -490.5t-438 -154.5q-242 0 -336 16q-35 8 -35 39v711h-146q-38 -1 -38 34zM254 76q121 -8 281 -8q508 0 507 565v254q0 565 -507 565q-100 0 -281 -12v-598h174q39 0 39 -33 v-21q0 -35 -39 -34h-174v-678z" />
<glyph unicode="&#xd1;" horiz-adv-x="1333" d="M164 39v1393q0 45 27.5 72.5t72.5 27.5q68 0 98 -64l689 -1380q6 -14 16 -14t10 18v1391q0 39 33 39h25q35 0 34 -39v-1391q0 -47 -26.5 -75.5t-65.5 -28.5q-51 0 -69 14q-23 18 -37 47l-690 1383q-6 14 -16.5 14t-10.5 -14v-1393q0 -16 -10.5 -27.5t-24.5 -11.5h-20 q-14 0 -24.5 11.5t-10.5 27.5zM338 1659v53q0 92 43 139t119 47q80 0 135 -53l98 -96q57 -57 101 -57q82 0 81 108v53q0 33 21 33h35q23 0 22 -33v-53q0 -92 -42 -139t-117 -47q-82 0 -138 53l-98 96q-57 57 -98 58q-84 0 -84 -109v-53q0 -33 -21 -33h-35q-22 0 -22 33z" />
<glyph unicode="&#xd2;" horiz-adv-x="1294" d="M123 633v254q0 328 141.5 486.5t383 158.5t382.5 -159t141 -486v-254q0 -328 -141 -486.5t-382.5 -158.5t-383 158.5t-141.5 486.5zM213 633q0 -559 434 -559t434 559v254q0 559 -434 559t-434 -559v-254zM422 1939q0 14 22 15h54q23 0 47 -31l205 -262q8 -8 8 -21 q0 -14 -19 -14h-45q-16 0 -45 35l-219 262q-8 8 -8 16z" />
<glyph unicode="&#xd3;" horiz-adv-x="1294" d="M123 633v254q0 328 141.5 486.5t383 158.5t382.5 -159t141 -486v-254q0 -328 -141 -486.5t-382.5 -158.5t-383 158.5t-141.5 486.5zM213 633q0 -559 434 -559t434 559v254q0 559 -434 559t-434 -559v-254zM518 1640q0 12 8 21l205 262q25 31 47 31h53q23 0 23 -15 q0 -8 -8 -16l-219 -262q-29 -35 -45 -35h-45q-19 0 -19 14z" />
<glyph unicode="&#xd4;" horiz-adv-x="1294" d="M123 633v254q0 328 141.5 486.5t383 158.5t382.5 -159t141 -486v-254q0 -328 -141 -486.5t-382.5 -158.5t-383 158.5t-141.5 486.5zM213 633q0 -559 434 -559t434 559v254q0 559 -434 559t-434 -559v-254zM346 1640q0 12 8 21l205 262q25 31 47 31h82q23 0 47 -31 l205 -262q8 -8 8 -21q0 -14 -18 -14h-45q-16 0 -45 35l-193 231l-192 -231q-29 -35 -45 -35h-45q-19 0 -19 14z" />
<glyph unicode="&#xd5;" horiz-adv-x="1294" d="M123 633v254q0 328 141.5 486.5t383 158.5t382.5 -159t141 -486v-254q0 -328 -141 -486.5t-382.5 -158.5t-383 158.5t-141.5 486.5zM213 633q0 -559 434 -559t434 559v254q0 559 -434 559t-434 -559v-254zM319 1659v53q0 92 43.5 139t118.5 47q80 0 135 -53l99 -96 q57 -57 100 -57q82 0 82 108v53q0 33 21 33h34q23 0 23 -33v-53q0 -92 -42 -139t-118 -47q-82 0 -137 53l-98 96q-57 57 -99 58q-84 0 -84 -109v-53q0 -33 -20 -33h-35q-23 0 -23 33z" />
<glyph unicode="&#xd6;" horiz-adv-x="1294" d="M123 633v254q0 328 141.5 486.5t383 158.5t382.5 -159t141 -486v-254q0 -328 -141 -486.5t-382.5 -158.5t-383 158.5t-141.5 486.5zM213 633q0 -559 434 -559t434 559v254q0 559 -434 559t-434 -559v-254zM449 1706v152q0 14 11 26t27 12h13q16 0 27.5 -12t11.5 -26v-152 q0 -16 -11.5 -27.5t-27.5 -11.5h-13q-16 0 -27 11.5t-11 27.5zM756 1706v152q0 14 11 26t28 12h12q16 0 27.5 -12t11.5 -26v-152q0 -16 -11.5 -27.5t-27.5 -11.5h-12q-16 0 -27.5 11.5t-11.5 27.5z" />
<glyph unicode="&#xd7;" d="M225 479q0 14 17 31l290 291l-290 291q-16 16 -17 30q0 10 11 21l14 14q10 10 22 10q14 0 31 -16l291 -291l291 293q16 16 30 16q12 0 23 -10l14 -14q10 -10 11 -23q0 -14 -17 -30l-293 -291l293 -293q16 -16 17 -31q0 -12 -11 -22l-14 -15q-10 -10 -23 -10q-14 0 -30 16 l-291 293l-291 -290q-16 -16 -31 -17q-12 0 -22 10l-14 15q-11 10 -11 22z" />
<glyph unicode="&#xd8;" horiz-adv-x="1294" d="M74 10q0 6 6 17l135 188q-92 156 -92 418v254q0 328 141.5 486.5t382.5 158.5q256 0 391 -168l86 119q29 39 54 39h20q23 0 23 -23q0 -8 -7 -16l-133 -185q90 -158 90 -411v-254q0 -328 -141 -486.5t-383 -158.5q-250 0 -387 164l-90 -125q-29 -39 -53 -39h-21 q-22 -1 -22 22zM213 633q0 -207 59 -336l713 991q-109 158 -338 158q-434 0 -434 -559v-254zM313 227q111 -154 334 -153q434 0 434 559v254q0 203 -57 330z" />
<glyph unicode="&#xd9;" horiz-adv-x="1296" d="M164 541v942q0 16 10 27.5t25 11.5h20q14 0 24.5 -11.5t10.5 -27.5v-942q0 -231 93 -350t302 -119t301 118.5t92 350.5v942q0 16 10.5 27.5t24.5 11.5h21q14 0 24.5 -11.5t10.5 -27.5v-942q0 -266 -120 -409.5t-364 -143.5q-246 0 -365.5 143.5t-119.5 409.5zM418 1939 q0 14 22 15h54q23 0 47 -31l204 -262q8 -8 9 -21q0 -14 -19 -14h-45q-16 0 -45 35l-219 262q-8 8 -8 16z" />
<glyph unicode="&#xda;" horiz-adv-x="1296" d="M164 541v942q0 16 10 27.5t25 11.5h20q14 0 24.5 -11.5t10.5 -27.5v-942q0 -231 93 -350t302 -119t301 118.5t92 350.5v942q0 16 10.5 27.5t24.5 11.5h21q14 0 24.5 -11.5t10.5 -27.5v-942q0 -266 -120 -409.5t-364 -143.5q-246 0 -365.5 143.5t-119.5 409.5zM541 1640 q0 12 8 21l205 262q25 31 47 31h53q23 0 23 -15q0 -8 -9 -16l-219 -262q-29 -35 -45 -35h-45q-18 0 -18 14z" />
<glyph unicode="&#xdb;" horiz-adv-x="1296" d="M164 541v942q0 16 10 27.5t25 11.5h20q14 0 24.5 -11.5t10.5 -27.5v-942q0 -231 93 -350t302 -119t301 118.5t92 350.5v942q0 16 10.5 27.5t24.5 11.5h21q14 0 24.5 -11.5t10.5 -27.5v-942q0 -266 -120 -409.5t-364 -143.5q-246 0 -365.5 143.5t-119.5 409.5zM346 1640 q0 12 8 21l205 262q25 31 47 31h82q23 0 47 -31l205 -262q8 -8 8 -21q0 -14 -18 -14h-45q-16 0 -45 35l-193 231l-192 -231q-29 -35 -45 -35h-45q-19 0 -19 14z" />
<glyph unicode="&#xdc;" horiz-adv-x="1296" d="M164 541v942q0 16 10 27.5t25 11.5h20q14 0 24.5 -11.5t10.5 -27.5v-942q0 -231 93 -350t302 -119t301 118.5t92 350.5v942q0 16 10.5 27.5t24.5 11.5h21q14 0 24.5 -11.5t10.5 -27.5v-942q0 -266 -120 -409.5t-364 -143.5q-246 0 -365.5 143.5t-119.5 409.5zM449 1706 v152q0 14 11 26t27 12h13q16 0 27.5 -12t11.5 -26v-152q0 -16 -11.5 -27.5t-27.5 -11.5h-13q-16 0 -27 11.5t-11 27.5zM756 1706v152q0 14 11 26t28 12h12q16 0 27.5 -12t11.5 -26v-152q0 -16 -11.5 -27.5t-27.5 -11.5h-12q-16 0 -27.5 11.5t-11.5 27.5z" />
<glyph unicode="&#xdd;" horiz-adv-x="1128" d="M98 1466q-8 17 -7 30q0 26 36 26h20q20 0 33 -25l322 -717q20 -45 31.5 -58t30 -13t29.5 13t32 58l321 717q12 25 33 25h20q36 0 37 -26q0 -12 -8 -30l-323 -714q-45 -98 -97 -119v-594q0 -16 -10 -27.5t-25 -11.5h-20q-14 0 -24.5 11.5t-10.5 27.5v594q-51 20 -96 119z M465 1640q0 12 8 21l205 262q25 31 47 31h53q23 0 23 -15q0 -8 -8 -16l-220 -262q-29 -35 -45 -35h-45q-18 0 -18 14z" />
<glyph unicode="&#xde;" horiz-adv-x="1105" d="M164 39v1444q0 16 10 27.5t25 11.5h20q14 0 24.5 -11.5t10.5 -27.5v-154q104 6 223 6q557 0 557 -415v-35q0 -233 -142 -336t-415 -103q-109 0 -223 9v-416q0 -16 -10.5 -27.5t-24.5 -11.5h-20q-14 0 -24.5 11.5t-10.5 27.5zM254 535q127 -8 223 -9q242 0 354.5 83 t112.5 276v35q0 184 -114.5 259.5t-352.5 75.5q-133 0 -223 -6v-714z" />
<glyph unicode="&#xdf;" horiz-adv-x="1112" d="M154 41v1010q0 238 111.5 359.5t297.5 121.5q180 0 290 -98.5t110 -278.5v-14q0 -119 -71 -210t-171 -130q123 -37 200.5 -132.5t77.5 -224.5v-16q0 -227 -133 -333.5t-344 -106.5q-14 0 -38.5 3t-43.5 3q-41 0 -41 37v16q0 25 35 25h6q23 0 45.5 -2t36.5 -2 q387 0 387 360v16q0 137 -100 225.5t-274 88.5h-84q-41 0 -41 33v18q0 33 41 33h84q168 0 252.5 86t84.5 213v14q0 297 -309 297q-143 0 -231 -92t-88 -307v-1012q0 -41 -35 -41h-25q-30 0 -30 41z" />
<glyph unicode="&#xe0;" horiz-adv-x="999" d="M102 317v27q0 162 117 238.5t389 76.5h158v74q0 164 -56.5 230.5t-201.5 66.5q-117 0 -291 -18q-5 0 -9 -1q-38 0 -38 31v13q0 31 47 37q156 18 291 18q195 0 271.5 -97.5t76.5 -279.5v-692q0 -16 -12.5 -28.5t-28.5 -12.5h-10q-16 0 -28.5 12.5t-12.5 28.5v51 q-190 -104 -348 -104q-133 0 -223.5 76.5t-90.5 252.5zM193 317q0 -250 223 -249q156 0 350 104v408h-158q-231 0 -323 -52.5t-92 -183.5v-27zM262 1579q0 14 23 14h53q23 0 47 -30l205 -263q8 -8 8 -20q0 -14 -18 -14h-45q-16 0 -46 34l-219 263q-8 8 -8 16z" />
<glyph unicode="&#xe1;" horiz-adv-x="999" d="M102 317v27q0 162 117 238.5t389 76.5h158v74q0 164 -56.5 230.5t-201.5 66.5q-117 0 -291 -18q-5 0 -9 -1q-38 0 -38 31v13q0 31 47 37q156 18 291 18q195 0 271.5 -97.5t76.5 -279.5v-692q0 -16 -12.5 -28.5t-28.5 -12.5h-10q-16 0 -28.5 12.5t-12.5 28.5v51 q-190 -104 -348 -104q-133 0 -223.5 76.5t-90.5 252.5zM193 317q0 -250 223 -249q156 0 350 104v408h-158q-231 0 -323 -52.5t-92 -183.5v-27zM406 1280q0 12 8 20l204 263q25 31 48 30h53q23 0 22 -14q0 -8 -8 -16l-219 -263q-29 -35 -45 -34h-45q-18 0 -18 14z" />
<glyph unicode="&#xe2;" horiz-adv-x="999" d="M102 317v27q0 162 117 238.5t389 76.5h158v74q0 164 -56.5 230.5t-201.5 66.5q-117 0 -291 -18q-5 0 -9 -1q-38 0 -38 31v13q0 31 47 37q156 18 291 18q195 0 271.5 -97.5t76.5 -279.5v-692q0 -16 -12.5 -28.5t-28.5 -12.5h-10q-16 0 -28.5 12.5t-12.5 28.5v51 q-190 -104 -348 -104q-133 0 -223.5 76.5t-90.5 252.5zM193 317q0 -250 223 -249q156 0 350 104v408h-158q-231 0 -323 -52.5t-92 -183.5v-27zM199 1280q0 12 8 20l205 263q25 31 47 30h82q23 0 47 -30l205 -263q8 -8 8 -20q0 -14 -19 -14h-45q-16 0 -45 34l-192 232 l-193 -232q-29 -35 -45 -34h-45q-18 0 -18 14z" />
<glyph unicode="&#xe3;" horiz-adv-x="999" d="M102 317v27q0 162 117 238.5t389 76.5h158v74q0 164 -56.5 230.5t-201.5 66.5q-117 0 -291 -18q-5 0 -9 -1q-38 0 -38 31v13q0 31 47 37q156 18 291 18q195 0 271.5 -97.5t76.5 -279.5v-692q0 -16 -12.5 -28.5t-28.5 -12.5h-10q-16 0 -28.5 12.5t-12.5 28.5v51 q-190 -104 -348 -104q-133 0 -223.5 76.5t-90.5 252.5zM172 1331v53q0 92 43 139.5t119 47.5q80 0 135 -53l98 -97q57 -57 101 -57q82 0 82 109v53q0 33 20 33h35q23 0 22 -33v-53q0 -92 -42 -139.5t-117 -47.5q-82 0 -138 53l-98 97q-57 57 -98 57q-84 0 -84 -109v-53 q0 -33 -21 -33h-34q-23 0 -23 33zM193 317q0 -250 223 -249q156 0 350 104v408h-158q-231 0 -323 -52.5t-92 -183.5v-27z" />
<glyph unicode="&#xe4;" horiz-adv-x="999" d="M102 317v27q0 162 117 238.5t389 76.5h158v74q0 164 -56.5 230.5t-201.5 66.5q-117 0 -291 -18q-5 0 -9 -1q-38 0 -38 31v13q0 31 47 37q156 18 291 18q195 0 271.5 -97.5t76.5 -279.5v-692q0 -16 -12.5 -28.5t-28.5 -12.5h-10q-16 0 -28.5 12.5t-12.5 28.5v51 q-190 -104 -348 -104q-133 0 -223.5 76.5t-90.5 252.5zM193 317q0 -250 223 -249q156 0 350 104v408h-158q-231 0 -323 -52.5t-92 -183.5v-27zM301 1354v151q0 14 11.5 26.5t27.5 12.5h12q16 0 27.5 -12t11.5 -27v-151q0 -16 -11 -27.5t-28 -11.5h-12q-16 0 -27.5 11.5 t-11.5 27.5zM608 1354v151q0 14 11.5 26.5t27.5 12.5h12q16 0 27.5 -12t11.5 -27v-151q0 -16 -11 -27.5t-28 -11.5h-12q-16 0 -27.5 11.5t-11.5 27.5z" />
<glyph unicode="&#xe5;" horiz-adv-x="999" d="M102 317v27q0 162 117 238.5t389 76.5h158v74q0 164 -56.5 230.5t-201.5 66.5q-117 0 -291 -18q-5 0 -9 -1q-38 0 -38 31v13q0 31 47 37q156 18 291 18q195 0 271.5 -97.5t76.5 -279.5v-692q0 -16 -12.5 -28.5t-28.5 -12.5h-10q-16 0 -28.5 12.5t-12.5 28.5v51 q-190 -104 -348 -104q-133 0 -223.5 76.5t-90.5 252.5zM193 317q0 -250 223 -249q156 0 350 104v408h-158q-231 0 -323 -52.5t-92 -183.5v-27zM309 1429.5q0 77.5 56.5 134t134.5 56.5t134 -56.5t56 -134t-56 -134t-134 -56.5t-134.5 56.5t-56.5 134zM383 1429.5 q0 -49.5 34 -84t83 -34.5t83.5 34.5t34.5 84t-34.5 84t-83.5 34.5t-83 -34.5t-34 -84z" />
<glyph unicode="&#xe6;" horiz-adv-x="1699" d="M102 317v27q0 162 117 238.5t389 76.5h158v74q0 164 -56.5 230.5t-201.5 66.5q-117 0 -291 -18h-8q-39 0 -39 30v13q0 31 47 37q156 18 291 18q264 0 323 -199q109 199 349 199q205 0 306 -130t101 -357v-56q0 -16 -11 -27.5t-28 -11.5h-692v-110q0 -131 21.5 -187.5 t66.5 -91.5q94 -72 283 -71q133 0 303 34q2 0 6 1t6 1q31 0 31 -28v-15q0 -31 -39 -38q-168 -35 -307 -35q-324 0 -420 184q-39 -55 -76 -89t-120 -64.5t-195 -30.5q-133 0 -223.5 76.5t-90.5 252.5zM193 317q0 -250 223 -249q182 0 266 80.5t84 269.5v160h-158 q-231 0 -323 -51.5t-92 -182.5v-27zM856 610h641v13q0 201 -74.5 304t-242.5 103q-164 0 -244 -108.5t-80 -298.5v-13z" />
<glyph unicode="&#xe7;" horiz-adv-x="894" d="M113 483v138q0 219 98 354t307 135q92 0 248 -18q39 -6 39 -37v-15q0 -37 -43 -28q-143 18 -244 18q-315 0 -315 -409v-138q0 -416 315 -415q100 0 244 18q43 8 43 -29v-14q0 -31 -39 -37q-156 -18 -248 -18q-207 0 -306 138t-99 357zM295 -385q0 12 8 20l172 222 q25 31 47 30h53q23 0 23 -14q0 -8 -8 -16l-187 -222q-29 -35 -45 -34h-45q-18 0 -18 14z" />
<glyph unicode="&#xe8;" horiz-adv-x="1046" d="M113 485v136q0 219 108.5 354t304.5 135q205 0 306.5 -130t101.5 -357v-56q0 -16 -11.5 -27.5t-27.5 -11.5h-692v-43q0 -238 98 -327.5t272 -89.5q133 0 304 34q43 8 43 -26v-15q0 -31 -39 -38q-168 -35 -308 -35q-460 -1 -460 497zM203 610h641v13q0 201 -75 304 t-243 103q-164 0 -243.5 -109.5t-79.5 -299.5v-11zM283 1579q0 14 22 14h53q23 0 48 -30l204 -263q8 -8 8 -20q0 -14 -18 -14h-45q-16 0 -45 34l-219 263q-8 8 -8 16z" />
<glyph unicode="&#xe9;" horiz-adv-x="1046" d="M113 485v136q0 219 108.5 354t304.5 135q205 0 306.5 -130t101.5 -357v-56q0 -16 -11.5 -27.5t-27.5 -11.5h-692v-43q0 -238 98 -327.5t272 -89.5q133 0 304 34q43 8 43 -26v-15q0 -31 -39 -38q-168 -35 -308 -35q-460 -1 -460 497zM203 610h641v13q0 201 -75 304 t-243 103q-164 0 -243.5 -109.5t-79.5 -299.5v-11zM428 1280q0 12 8 20l205 263q25 31 47 30h53q23 0 23 -14q0 -8 -8 -16l-219 -263q-29 -35 -45 -34h-46q-18 0 -18 14z" />
<glyph unicode="&#xea;" horiz-adv-x="1046" d="M113 485v136q0 219 108.5 354t304.5 135q205 0 306.5 -130t101.5 -357v-56q0 -16 -11.5 -27.5t-27.5 -11.5h-692v-43q0 -238 98 -327.5t272 -89.5q133 0 304 34q43 8 43 -26v-15q0 -31 -39 -38q-168 -35 -308 -35q-460 -1 -460 497zM203 610h641v13q0 201 -75 304 t-243 103q-164 0 -243.5 -109.5t-79.5 -299.5v-11zM221 1280q0 12 8 20l205 263q25 31 47 30h82q23 0 47 -30l205 -263q8 -8 8 -20q0 -14 -18 -14h-45q-16 0 -45 34l-193 232l-192 -232q-29 -35 -45 -34h-45q-19 0 -19 14z" />
<glyph unicode="&#xeb;" horiz-adv-x="1046" d="M113 485v136q0 219 108.5 354t304.5 135q205 0 306.5 -130t101.5 -357v-56q0 -16 -11.5 -27.5t-27.5 -11.5h-692v-43q0 -238 98 -327.5t272 -89.5q133 0 304 34q43 8 43 -26v-15q0 -31 -39 -38q-168 -35 -308 -35q-460 -1 -460 497zM203 610h641v13q0 201 -75 304 t-243 103q-164 0 -243.5 -109.5t-79.5 -299.5v-11zM324 1354v151q0 14 12 26.5t26 12.5h13q14 0 26.5 -12t12.5 -27v-151q0 -16 -11.5 -27.5t-27.5 -11.5h-13q-16 0 -27 11.5t-11 27.5zM631 1354v151q0 14 12 26.5t27 12.5h12q14 0 26.5 -12t12.5 -27v-151 q0 -16 -11.5 -27.5t-27.5 -11.5h-12q-16 0 -27.5 11.5t-11.5 27.5z" />
<glyph unicode="&#xec;" horiz-adv-x="417" d="M-6 1579q0 14 22 14h54q23 0 47 -30l205 -263q8 -8 8 -20q0 -14 -19 -14h-45q-16 0 -45 34l-219 263q-8 8 -8 16zM164 39v1022q0 16 12 27.5t27 11.5h12q14 0 26.5 -11.5t12.5 -27.5v-1022q0 -14 -12.5 -26.5t-26.5 -12.5h-12q-14 0 -26.5 12.5t-12.5 26.5z" />
<glyph unicode="&#xed;" horiz-adv-x="417" d="M88 1280q0 12 8 20l205 263q25 31 47 30h53q23 0 23 -14q0 -8 -8 -16l-219 -263q-29 -35 -45 -34h-46q-18 0 -18 14zM164 39v1022q0 16 12 27.5t27 11.5h12q14 0 26.5 -11.5t12.5 -27.5v-1022q0 -14 -12.5 -26.5t-26.5 -12.5h-12q-14 0 -26.5 12.5t-12.5 26.5z" />
<glyph unicode="&#xee;" horiz-adv-x="417" d="M-92 1280q0 12 8 20l205 263q25 31 47 30h82q23 0 47 -30l205 -263q8 -8 8 -20q0 -14 -18 -14h-46q-16 0 -45 34l-192 232l-193 -232q-29 -35 -45 -34h-45q-18 0 -18 14zM164 39v1022q0 16 12 27.5t27 11.5h12q14 0 26.5 -11.5t12.5 -27.5v-1022q0 -14 -12.5 -26.5 t-26.5 -12.5h-12q-14 0 -26.5 12.5t-12.5 26.5z" />
<glyph unicode="&#xef;" horiz-adv-x="417" d="M10 1354v151q0 14 11.5 26.5t27.5 12.5h12q16 0 27.5 -12t11.5 -27v-151q0 -16 -11 -27.5t-28 -11.5h-12q-16 0 -27.5 11.5t-11.5 27.5zM164 39v1022q0 16 12 27.5t27 11.5h12q14 0 26.5 -11.5t12.5 -27.5v-1022q0 -14 -12.5 -26.5t-26.5 -12.5h-12q-14 0 -26.5 12.5 t-12.5 26.5zM317 1354v151q0 14 11.5 26.5t27.5 12.5h13q16 0 27.5 -12t11.5 -27v-151q0 -16 -11.5 -27.5t-27.5 -11.5h-13q-16 0 -27.5 11.5t-11.5 27.5z" />
<glyph unicode="&#xf0;" horiz-adv-x="1069" d="M113 477v144q0 236 107.5 362.5t314.5 126.5q201 0 307 -119q-66 240 -342 363l-199 -150q-31 -25 -49 0l-10 13q-18 25 14 49l158 123q-100 35 -219 59q-41 8 -31 41l6 20q8 29 45 21q164 -37 279 -82l208 160q14 10 26 9q13 0 26 -11l12 -13q20 -20 -12 -45l-179 -135 q80 -41 141.5 -91t101.5 -95t67.5 -110.5t42 -109.5t20.5 -119t7 -114t1 -119v-34v-144q0 -236 -107.5 -362.5t-314 -126.5t-314 126.5t-107.5 362.5zM203 477q0 -410 331.5 -409.5t331.5 409.5v144q0 410 -331.5 409.5t-331.5 -409.5v-144z" />
<glyph unicode="&#xf1;" horiz-adv-x="1067" d="M143 39v1020q0 41 37 41h17q37 0 36 -41v-33q174 84 330 84q160 0 260.5 -95t100.5 -296v-680q0 -16 -11.5 -27.5t-27.5 -11.5h-15q-14 0 -25 11.5t-11 27.5v680q0 311 -277 311q-150 0 -324 -84v-907q0 -14 -12 -26.5t-26 -12.5h-13q-14 0 -26.5 12.5t-12.5 26.5z M205 1300v54q0 92 43 139t119 47q80 0 135 -53l98 -96q57 -57 100 -58q82 0 82 109v53q0 33 21 33h35q23 0 22 -33v-53q0 -92 -42 -139.5t-118 -47.5q-82 0 -137 54l-98 96q-57 57 -98 57q-84 0 -84 -108v-54q0 -33 -21 -32h-35q-22 -1 -22 32z" />
<glyph unicode="&#xf2;" horiz-adv-x="1069" d="M113 477v144q0 236 107.5 362.5t314 126.5t314 -127t107.5 -362v-144q0 -236 -107.5 -362.5t-314 -126.5t-314 126.5t-107.5 362.5zM203 477q0 -410 331.5 -409.5t331.5 409.5v144q0 410 -331.5 409.5t-331.5 -409.5v-144zM322 1579q0 14 22 14h53q23 0 47 -30l205 -263 q8 -8 8 -20q0 -14 -18 -14h-45q-16 0 -45 34l-219 263q-8 8 -8 16z" />
<glyph unicode="&#xf3;" horiz-adv-x="1069" d="M113 477v144q0 236 107.5 362.5t314 126.5t314 -127t107.5 -362v-144q0 -236 -107.5 -362.5t-314 -126.5t-314 126.5t-107.5 362.5zM203 477q0 -410 331.5 -409.5t331.5 409.5v144q0 410 -331.5 409.5t-331.5 -409.5v-144zM438 1280q0 12 8 20l205 263q25 31 47 30h54 q23 0 22 -14q0 -8 -8 -16l-219 -263q-29 -35 -45 -34h-45q-19 0 -19 14z" />
<glyph unicode="&#xf4;" horiz-adv-x="1069" d="M113 477v144q0 236 107.5 362.5t314 126.5t314 -127t107.5 -362v-144q0 -236 -107.5 -362.5t-314 -126.5t-314 126.5t-107.5 362.5zM203 477q0 -410 331.5 -409.5t331.5 409.5v144q0 410 -331.5 409.5t-331.5 -409.5v-144zM233 1280q0 12 9 20l204 263q25 31 48 30h81 q23 0 48 -30l204 -263q8 -8 9 -20q0 -14 -19 -14h-45q-16 0 -45 34l-192 232l-193 -232q-29 -35 -45 -34h-45q-19 0 -19 14z" />
<glyph unicode="&#xf5;" horiz-adv-x="1069" d="M113 477v144q0 236 107.5 362.5t314 126.5t314 -127t107.5 -362v-144q0 -236 -107.5 -362.5t-314 -126.5t-314 126.5t-107.5 362.5zM203 477q0 -410 331.5 -409.5t331.5 409.5v144q0 410 -331.5 409.5t-331.5 -409.5v-144zM207 1298v54q0 92 43 139t119 47q80 0 135 -53 l98 -96q57 -57 100 -58q82 0 82 109v53q0 33 21 33h35q23 0 22 -33v-53q0 -92 -42 -139.5t-118 -47.5q-82 0 -137 54l-98 96q-57 57 -98 57q-84 0 -84 -108v-54q0 -33 -21 -32h-35q-22 -1 -22 32z" />
<glyph unicode="&#xf6;" horiz-adv-x="1069" d="M113 477v144q0 236 107.5 362.5t314 126.5t314 -127t107.5 -362v-144q0 -236 -107.5 -362.5t-314 -126.5t-314 126.5t-107.5 362.5zM203 477q0 -410 331.5 -409.5t331.5 409.5v144q0 410 -331.5 409.5t-331.5 -409.5v-144zM336 1354v151q0 14 12 26.5t27 12.5h12 q14 0 26.5 -12t12.5 -27v-151q0 -16 -11.5 -27.5t-27.5 -11.5h-12q-16 0 -27.5 11.5t-11.5 27.5zM643 1354v151q0 14 12.5 26.5t26.5 12.5h12q14 0 26.5 -12t12.5 -27v-151q0 -16 -11 -27.5t-28 -11.5h-12q-16 0 -27.5 11.5t-11.5 27.5z" />
<glyph unicode="&#xf7;" d="M180 791v20q0 33 41 33h748q41 0 41 -33v-20q0 -33 -41 -33h-748q-41 0 -41 33zM549 403v152q0 14 12 26.5t27 12.5h12q14 0 26.5 -12.5t12.5 -26.5v-152q0 -16 -11.5 -27t-27.5 -11h-12q-16 0 -27.5 11t-11.5 27zM549 1047v151q0 14 12 26.5t27 12.5h12q14 0 26.5 -12.5 t12.5 -26.5v-151q0 -16 -11.5 -27.5t-27.5 -11.5h-12q-16 0 -27.5 11.5t-11.5 27.5z" />
<glyph unicode="&#xf8;" horiz-adv-x="1069" d="M51 -55q0 12 8 22l136 183q-82 127 -82 327v144q0 236 107.5 362.5t314.5 126.5q184 0 292 -104l101 137q16 20 33 20h40q16 0 17 -16q0 -14 -8 -23l-133 -178q80 -123 79 -325v-144q0 -236 -107.5 -362.5t-313.5 -126.5q-184 0 -291 100l-103 -139q-16 -20 -32 -21h-41 q-17 1 -17 17zM203 477q0 -158 47 -252l526 713q-82 92 -241 92q-332 0 -332 -409v-144zM295 158q84 -90 240 -90q332 0 331 409v144q0 152 -45 247z" />
<glyph unicode="&#xf9;" horiz-adv-x="1067" d="M143 381v680q0 16 11.5 27.5t27.5 11.5h15q14 0 25 -11.5t11 -27.5v-680q0 -311 277 -311q141 0 324 84v907q0 16 11 27.5t27 11.5h13q16 0 27.5 -11.5t11.5 -27.5v-1020q0 -41 -37 -41h-17q-37 0 -36 41v33q-174 -84 -330 -84q-160 0 -260.5 95t-100.5 296zM289 1579 q0 14 22 14h54q23 0 47 -30l204 -263q8 -8 9 -20q0 -14 -19 -14h-45q-16 0 -45 34l-219 263q-8 8 -8 16z" />
<glyph unicode="&#xfa;" horiz-adv-x="1067" d="M143 381v680q0 16 11.5 27.5t27.5 11.5h15q14 0 25 -11.5t11 -27.5v-680q0 -311 277 -311q141 0 324 84v907q0 16 11 27.5t27 11.5h13q16 0 27.5 -11.5t11.5 -27.5v-1020q0 -41 -37 -41h-17q-37 0 -36 41v33q-174 -84 -330 -84q-160 0 -260.5 95t-100.5 296zM453 1280 q0 12 8 20l205 263q25 31 47 30h53q23 0 22 -14q0 -8 -8 -16l-219 -263q-29 -35 -45 -34h-45q-18 0 -18 14z" />
<glyph unicode="&#xfb;" horiz-adv-x="1067" d="M143 381v680q0 16 11.5 27.5t27.5 11.5h15q14 0 25 -11.5t11 -27.5v-680q0 -311 277 -311q141 0 324 84v907q0 16 11 27.5t27 11.5h13q16 0 27.5 -11.5t11.5 -27.5v-1020q0 -41 -37 -41h-17q-37 0 -36 41v33q-174 -84 -330 -84q-160 0 -260.5 95t-100.5 296zM231 1280 q0 12 9 20l204 263q25 31 48 30h81q23 0 48 -30l204 -263q8 -8 9 -20q0 -14 -19 -14h-45q-16 0 -45 34l-193 232l-192 -232q-29 -35 -45 -34h-45q-19 0 -19 14z" />
<glyph unicode="&#xfc;" horiz-adv-x="1067" d="M143 381v680q0 16 11.5 27.5t27.5 11.5h15q14 0 25 -11.5t11 -27.5v-680q0 -311 277 -311q141 0 324 84v907q0 16 11 27.5t27 11.5h13q16 0 27.5 -11.5t11.5 -27.5v-1020q0 -41 -37 -41h-17q-37 0 -36 41v33q-174 -84 -330 -84q-160 0 -260.5 95t-100.5 296zM334 1354 v151q0 14 11 26.5t28 12.5h12q16 0 27.5 -12t11.5 -27v-151q0 -16 -11.5 -27.5t-27.5 -11.5h-12q-16 0 -27.5 11.5t-11.5 27.5zM641 1354v151q0 14 11.5 26.5t27.5 12.5h12q16 0 27.5 -12t11.5 -27v-151q0 -16 -11 -27.5t-28 -11.5h-12q-16 0 -27.5 11.5t-11.5 27.5z" />
<glyph unicode="&#xfd;" horiz-adv-x="995" d="M78 -336q0 35 43 29q92 -12 133 -12q111 0 159 44t85 179l26 96h-28q-51 0 -78 22.5t-47 92.5l-277 936q-3 11 -3 20q0 29 36 29h18q25 0 33 -29l277 -942q12 -45 47 -45h47l280 989q8 27 37 27h19q33 0 33 -28q0 -10 -5 -23l-335 -1164q-47 -164 -118 -224t-214 -60 q-53 0 -127 12q-41 6 -41 29v22zM420 1280q0 12 8 20l205 263q25 31 47 30h53q23 0 23 -14q0 -8 -8 -16l-220 -263q-29 -35 -45 -34h-45q-18 0 -18 14z" />
<glyph unicode="&#xfe;" horiz-adv-x="1032" d="M143 -360v1843q0 16 10.5 27.5t24.5 11.5h21q14 0 24 -11.5t10 -27.5v-400q160 27 285 27q205 0 303.5 -133t98.5 -365v-135q0 -489 -402 -489q-147 0 -285 30v-378q0 -16 -10 -27.5t-24 -11.5h-21q-14 0 -24.5 11.5t-10.5 27.5zM233 94q127 -27 285 -26q166 0 238.5 101 t72.5 308v135q0 207 -72.5 312.5t-238.5 105.5q-125 0 -285 -26v-910z" />
<glyph unicode="&#xff;" horiz-adv-x="995" d="M78 -336q0 35 43 29q92 -12 133 -12q111 0 159 44t85 179l26 96h-28q-51 0 -78 22.5t-47 92.5l-277 936q-3 11 -3 20q0 29 36 29h18q25 0 33 -29l277 -942q12 -45 47 -45h47l280 989q8 27 37 27h19q33 0 33 -28q0 -10 -5 -23l-335 -1164q-47 -164 -118 -224t-214 -60 q-53 0 -127 12q-41 6 -41 29v22zM299 1368v152q0 16 12.5 27.5t26.5 11.5h12q14 0 26.5 -11.5t12.5 -27.5v-152q0 -16 -11 -27.5t-28 -11.5h-12q-16 0 -27.5 11.5t-11.5 27.5zM606 1368v152q0 16 12.5 27.5t26.5 11.5h12q14 0 26.5 -11.5t12.5 -27.5v-152q0 -16 -11 -27.5 t-28 -11.5h-12q-16 0 -27.5 11.5t-11.5 27.5z" />
<glyph unicode="&#x152;" horiz-adv-x="2011" d="M123 530v459q0 254 148.5 398.5t375.5 144.5q293 0 436 -215v37q0 88 40 128t130 40h607q39 0 38 -35v-17q0 -33 -38 -32h-607q-49 0 -64 -18.5t-15 -65.5v-512h686q39 0 38 -33v-21q0 -35 -38 -34h-686v-588q0 -45 15 -63.5t64 -18.5h607q39 0 38 -33v-16q0 -35 -38 -35 h-607q-88 0 -129 40t-41 126v39q-145 -217 -436 -217q-227 0 -375.5 145t-148.5 397zM213 530q0 -213 125 -334.5t309 -121.5q180 0 305 115.5t131 320.5v6v14v459v15v6q-6 205 -131 320.5t-305 115.5q-184 0 -309 -122t-125 -335v-459z" />
<glyph unicode="&#x153;" horiz-adv-x="1822" d="M137 406v286q0 174 110.5 296t309.5 122q262 0 371 -207q94 207 362 207q201 0 298.5 -111.5t97.5 -285.5v-146q0 -16 -11.5 -27.5t-27.5 -11.5h-670v-145q0 -168 91 -241.5t269 -73.5q119 0 291 20h8q35 0 35 -29v-12q0 -33 -39 -39q-172 -20 -301 -20q-317 0 -407 202 q-109 -203 -367 -202q-199 0 -309.5 122t-110.5 296zM225 406q0 -139 87 -238.5t245 -99.5t245 99t87 239v286q0 139 -87 238.5t-245 99.5t-245 -99.5t-87 -238.5v-286zM977 610h618v103q0 135 -73.5 226t-231.5 91q-160 0 -236.5 -92t-76.5 -225v-103z" />
<glyph unicode="&#x178;" horiz-adv-x="1128" d="M98 1466q-8 17 -7 30q0 26 36 26h20q20 0 33 -25l322 -717q20 -45 31.5 -58t30 -13t29.5 13t32 58l321 717q12 25 33 25h20q36 0 37 -26q0 -12 -8 -30l-323 -714q-45 -98 -97 -119v-594q0 -16 -10 -27.5t-25 -11.5h-20q-14 0 -24.5 11.5t-10.5 27.5v594q-51 20 -96 119z M365 1706v152q0 14 12 26t26 12h13q14 0 26.5 -12t12.5 -26v-152q0 -16 -11.5 -27.5t-27.5 -11.5h-13q-16 0 -27 11.5t-11 27.5zM672 1706v152q0 14 12 26t27 12h12q14 0 26.5 -12t12.5 -26v-152q0 -16 -11.5 -27.5t-27.5 -11.5h-12q-16 0 -27.5 11.5t-11.5 27.5z" />
<glyph unicode="&#x2c6;" horiz-adv-x="675" d="M37 1280q0 12 8 20l205 263q25 31 47 30h82q23 0 47 -30l205 -263q8 -8 8 -20q0 -14 -18 -14h-46q-16 0 -45 34l-192 232l-193 -232q-29 -35 -45 -34h-45q-18 0 -18 14z" />
<glyph unicode="&#x2dc;" horiz-adv-x="1005" d="M162 1331v53q0 92 43 139.5t119 47.5q80 0 135 -53l98 -97q57 -57 100 -57q82 0 82 109v53q0 33 21 33h35q23 0 22 -33v-53q0 -92 -42 -139.5t-118 -47.5q-82 0 -137 53l-98 97q-57 57 -98 57q-84 0 -84 -109v-53q0 -33 -21 -33h-35q-22 0 -22 33z" />
<glyph unicode="&#x2013;" horiz-adv-x="737" d="M-31 559v16q0 16 11.5 26.5t27.5 10.5h721q16 0 27.5 -10t11.5 -27v-16q0 -33 -39 -33h-721q-39 0 -39 33z" />
<glyph unicode="&#x2014;" horiz-adv-x="1439" d="M-31 559v16q0 16 11.5 26.5t27.5 10.5h1424q16 0 27 -10t11 -27v-16q0 -33 -38 -33h-1424q-39 0 -39 33z" />
<glyph unicode="&#x2018;" horiz-adv-x="348" d="M80 1112q0 10 2 16l98 353q10 39 39 39h31q18 0 18 -21q0 -12 -2 -18l-84 -353q-8 -39 -41 -38h-39q-22 -1 -22 22z" />
<glyph unicode="&#x2019;" horiz-adv-x="348" d="M80 1112q0 12 2 18l84 353q8 39 41 39h39q23 0 22 -23q0 -10 -2 -16l-98 -353q-10 -39 -39 -38h-31q-18 0 -18 20z" />
<glyph unicode="&#x201a;" horiz-adv-x="348" d="M80 -193q0 12 2 19l84 352q8 39 41 39h39q23 0 22 -22q0 -10 -2 -17l-98 -352q-10 -39 -39 -39h-31q-18 0 -18 20z" />
<glyph unicode="&#x201c;" horiz-adv-x="604" d="M80 1114q0 10 2 16l98 353q10 39 39 39h31q18 0 18 -21q0 -12 -2 -18l-84 -353q-8 -39 -41 -38h-39q-22 -1 -22 22zM336 1114q0 10 2 16l98 353q10 39 39 39h31q18 0 18 -21q0 -12 -2 -18l-84 -353q-8 -39 -41 -38h-39q-22 -1 -22 22z" />
<glyph unicode="&#x201d;" horiz-adv-x="604" d="M80 1112q0 12 2 18l84 353q8 39 41 39h39q23 0 22 -23q0 -10 -2 -16l-98 -353q-10 -39 -39 -38h-31q-18 0 -18 20zM336 1112q0 12 2 18l84 353q8 39 41 39h39q23 0 22 -23q0 -10 -2 -16l-98 -353q-10 -39 -39 -38h-31q-18 0 -18 20z" />
<glyph unicode="&#x201e;" horiz-adv-x="604" d="M80 -193q0 12 2 19l84 352q8 39 41 39h39q23 0 22 -22q0 -10 -2 -17l-98 -352q-10 -39 -39 -39h-31q-18 0 -18 20zM336 -193q0 12 2 19l84 352q8 39 41 39h39q23 0 22 -22q0 -10 -2 -17l-98 -352q-10 -39 -39 -39h-31q-18 0 -18 20z" />
<glyph unicode="&#x2022;" horiz-adv-x="856" d="M113 752q0 131 92 223t223 92t223 -92t92 -223t-92 -223.5t-223 -92.5t-223 92.5t-92 223.5z" />
<glyph unicode="&#x2026;" horiz-adv-x="1040" d="M127 27v151q0 14 12.5 26.5t26.5 12.5h12q14 0 26.5 -12t12.5 -27v-151q0 -16 -11 -27.5t-28 -11.5h-12q-16 0 -27.5 11.5t-11.5 27.5zM475 27v151q0 14 12.5 26.5t26.5 12.5h12q14 0 26.5 -12t12.5 -27v-151q0 -16 -11 -27.5t-28 -11.5h-12q-16 0 -27.5 11.5t-11.5 27.5 zM823 27v151q0 14 12.5 26.5t26.5 12.5h12q14 0 26.5 -12t12.5 -27v-151q0 -16 -11 -27.5t-28 -11.5h-12q-16 0 -27.5 11.5t-11.5 27.5z" />
<glyph unicode="&#x2039;" horiz-adv-x="624" d="M45 551q0 31 29 59l364 334q18 14 33 14q12 0 21 -8l14 -14q10 -10 10 -23q0 -18 -16 -30l-363 -332l363 -332q16 -12 16 -31q0 -12 -10 -22l-14 -14q-8 -8 -21 -9q-14 0 -33 15l-364 334q-29 24 -29 59z" />
<glyph unicode="&#x203a;" horiz-adv-x="624" d="M109 188q0 18 16 31l362 332l-362 332q-16 12 -16 30q0 12 10 23l14 14q8 8 21 8q14 0 32 -14l365 -334q29 -29 29 -59q0 -35 -29 -59l-365 -334q-18 -14 -32 -15q-12 0 -21 9l-14 14q-10 10 -10 22z" />
<glyph unicode="&#x20ac;" d="M61 604v19q0 33 41 32h86v219h-90q-37 0 -37 33v19q0 33 41 32h86q8 158 59.5 274t132.5 178.5t169 92t186 29.5q115 0 293 -21q39 -4 39 -34v-25q0 -25 -27 -25h-12q-166 18 -293 19q-182 0 -313 -120t-143 -368h673q37 0 37 -26v-6l-4 -19q-6 -33 -41 -33h-665v-219 h608q37 0 37 -26v-6l-4 -19q-6 -33 -41 -33h-600q12 -254 142 -375.5t314 -121.5q127 0 293 18h12q27 0 27 -24v-25q0 -31 -39 -35q-178 -20 -293 -20q-78 0 -150.5 17.5t-143 60.5t-124 107.5t-89 166.5t-40.5 231h-90q-37 0 -37 33z" />
<glyph unicode="&#x2122;" horiz-adv-x="1568" d="M51 1477v10q0 33 35 33h520q37 0 37 -33v-10q0 -31 -37 -31h-219v-727q0 -12 -10 -23.5t-25 -11.5h-10q-14 0 -23.5 11.5t-9.5 23.5v727h-223q-35 0 -35 31zM723 705v778q0 16 16 20q180 23 363 23q215 0 295 -54.5t80 -244.5v-522q0 -20 -21 -21h-37q-18 0 -18 21v522 q0 141 -45 183t-217 42v-747q0 -20 -19 -21h-39q-20 0 -20 21v747q-131 0 -262 -16v-731q0 -20 -19 -21h-37q-20 1 -20 21z" />
<glyph unicode="&#xe000;" horiz-adv-x="1100" d="M0 1100h1100v-1100h-1100v1100z" />
<glyph unicode="&#xfb01;" horiz-adv-x="1169" d="M82 1049v18q0 33 39 33h203v190q0 242 231 242q68 0 106.5 -6t38.5 -33v-14q0 -27 -43 -27h-102q-74 0 -107.5 -36t-33.5 -126v-190h553q16 0 27.5 -11.5t11.5 -27.5v-1022q0 -14 -11.5 -26.5t-27.5 -12.5h-13q-16 0 -27.5 12.5t-11.5 26.5v977h-501v-977 q0 -16 -11.5 -27.5t-25.5 -11.5h-15q-16 0 -27 11.5t-11 27.5v977h-203q-39 0 -39 33zM915 1341v152q0 14 11.5 26.5t27.5 12.5h13q16 0 27.5 -12.5t11.5 -26.5v-152q0 -16 -11.5 -27t-27.5 -11h-13q-16 0 -27.5 11t-11.5 27z" />
<glyph unicode="&#xfb02;" horiz-adv-x="1169" d="M82 1049v18q0 33 39 33h203v190q0 139 66.5 190.5t225.5 51.5q238 0 355 -6q14 0 24.5 -11.5t10.5 -27.5v-1448q0 -16 -10.5 -27.5t-24.5 -11.5h-21q-14 0 -24.5 11.5t-10.5 27.5v1413h-294q-125 0 -166 -29.5t-41 -132.5v-190h243q39 0 39 -33v-18q0 -33 -39 -33h-243 v-977q0 -16 -11.5 -27.5t-25.5 -11.5h-15q-16 0 -27 11.5t-11 27.5v977h-203q-39 0 -39 33z" />
<glyph unicode="&#xfb03;" horiz-adv-x="1781" d="M82 1049v18q0 33 39 33h203v190q0 242 231 242q68 0 106.5 -6t38.5 -33v-14q0 -27 -43 -27h-102q-74 0 -107.5 -36t-33.5 -126v-190h501v190q0 242 232 242q66 0 106 -6q39 -6 39 -33v-14q0 -27 -43 -27h-102q-74 0 -107.5 -36t-33.5 -126v-190h573q39 0 39 -39v-1022 q0 -14 -12.5 -26.5t-26.5 -12.5h-12q-14 0 -26.5 12.5t-12.5 26.5v977h-522v-977q0 -16 -11.5 -27.5t-25.5 -11.5h-15q-16 0 -27.5 11.5t-11.5 27.5v977h-501v-977q0 -16 -11.5 -27.5t-25.5 -11.5h-15q-16 0 -27 11.5t-11 27.5v977h-203q-39 0 -39 33zM1528 1341v152 q0 14 12 26.5t27 12.5h12q14 0 26.5 -12.5t12.5 -26.5v-152q0 -16 -11.5 -27t-27.5 -11h-12q-16 0 -27.5 11t-11.5 27z" />
<glyph unicode="&#xfb04;" horiz-adv-x="1761" d="M82 1049v18q0 33 39 33h203v190q0 242 231 242q68 0 106.5 -6t38.5 -33v-14q0 -27 -43 -27h-102q-74 0 -107.5 -36t-33.5 -126v-190h501v190q0 139 67 190.5t226 51.5q238 0 355 -6q14 0 24 -11.5t10 -27.5v-1448q0 -16 -10 -27.5t-24 -11.5h-21q-14 0 -24.5 11.5 t-10.5 27.5v1413h-295q-125 0 -165.5 -29.5t-40.5 -132.5v-190h243q39 0 39 -33v-18q0 -33 -39 -33h-243v-977q0 -16 -11.5 -27.5t-25.5 -11.5h-15q-16 0 -27.5 11.5t-11.5 27.5v977h-501v-977q0 -16 -11.5 -27.5t-25.5 -11.5h-15q-16 0 -27 11.5t-11 27.5v977h-203 q-39 0 -39 33z" />
</font>
</defs>
</svg>
